<?xml version="1.0" encoding="UTF-8"?>
<svg width="24px" height="24px" viewBox="0 0 24 24" version="1.1" xmlns="http://www.w3.org/2000/svg" xmlns:xlink="http://www.w3.org/1999/xlink">
    <!-- Generator: Sketch 52.3 (67297) - http://www.bohemiancoding.com/sketch -->
    <title>Icon/24/Analysis/Primary</title>
    <desc>Created with Sketch.</desc>
    <g id="Icon/24/Analysis/Primary" stroke="none" stroke-width="1" fill="none" fill-rule="evenodd">
        <g>
            <rect id="Rectangle" x="0" y="0" width="24" height="24"></rect>
            <g id="analysis" transform="translate(2.000000, 2.000000)" fill="#8CC5D2" opacity="0.800000012">
                <path d="M12.6364712,4.96436032 C13.1738877,4.96436032 13.6111111,4.52447516 13.6111111,3.98378707 C13.6111111,3.44309899 13.1738877,3.0031746 12.6364712,3.0031746 C12.0990548,3.0031746 11.6618314,3.44309899 11.6618314,3.98378707 C11.6618314,4.20461217 11.7348124,4.4085714 11.857734,4.57268014 L10.2563617,6.82411554 C10.160808,6.79254108 10.0588607,6.77520455 9.95289782,6.77520455 C9.69680145,6.77520455 9.46358962,6.87526224 9.28947995,7.03835119 L8.22209335,6.42898375 C8.2363231,6.36246166 8.24396427,6.29350775 8.24396427,6.2227888 C8.24396427,5.68210072 7.80674083,5.24221556 7.2693244,5.24221556 C6.73190798,5.24221556 6.29468453,5.68210072 6.29468453,6.2227888 C6.29468453,6.29350775 6.30232571,6.36246166 6.31655545,6.42898375 L5.24916885,7.03835119 C5.07505918,6.87526224 4.84184735,6.77524377 4.58575098,6.77524377 C4.04833456,6.77524377 3.61111111,7.21516815 3.61111111,7.75585624 C3.61111111,8.29654433 4.04833456,8.73646871 4.58575098,8.73646871 C5.12316741,8.73646871 5.56039085,8.29654433 5.56039085,7.75585624 C5.56039085,7.6851373 5.55274968,7.61618339 5.53851993,7.5496613 L6.60590653,6.94029386 C6.7800162,7.1033828 7.01322803,7.2034405 7.2693244,7.2034405 C7.52542077,7.2034405 7.75859362,7.1033828 7.93274227,6.94033308 L9.00012887,7.54970052 C8.98589913,7.61622261 8.97825795,7.68517652 8.97825795,7.75589547 C8.97825795,8.29658355 9.4154814,8.73650794 9.95289782,8.73650794 C10.4903532,8.73650794 10.9275767,8.29658355 10.9275767,7.75589547 C10.9275767,7.53503115 10.8545567,7.33103269 10.7316351,7.16692395 L12.3330074,4.91548855 C12.4285221,4.94702379 12.5305084,4.96436032 12.6364712,4.96436032 Z M12.6364712,3.59151855 C12.8514378,3.59151855 13.0263272,3.76747262 13.0263272,3.98378707 C13.0263272,4.20006231 12.8514378,4.37601637 12.6364712,4.37601637 C12.4215047,4.37601637 12.2466153,4.20006231 12.2466153,3.98378707 C12.2465763,3.76747262 12.4214657,3.59151855 12.6364712,3.59151855 Z M4.58563402,8.14804632 C4.37066746,8.14804632 4.19577808,7.97209226 4.19577808,7.7557778 C4.19577808,7.53946334 4.37066746,7.36350928 4.58563402,7.36350928 C4.80060059,7.36350928 4.97548997,7.53946334 4.97548997,7.7557778 C4.97548997,7.97209226 4.80060059,8.14804632 4.58563402,8.14804632 Z M7.26924643,6.6150181 C7.05427986,6.6150181 6.87939048,6.43906404 6.87939048,6.22274958 C6.87939048,6.00647435 7.05427986,5.83052028 7.26924643,5.83052028 C7.484213,5.83052028 7.65910238,6.00647435 7.65910238,6.22274958 C7.65914136,6.43906404 7.484213,6.6150181 7.26924643,6.6150181 Z M9.95285884,8.14804632 C9.73789227,8.14804632 9.56300289,7.97209226 9.56300289,7.7557778 C9.56300289,7.53946334 9.73789227,7.36350928 9.95285884,7.36350928 C10.1678644,7.36350928 10.3427538,7.53946334 10.3427538,7.7557778 C10.3427538,7.97209226 10.1678254,8.14804632 9.95285884,8.14804632 Z" id="Shape"></path>
                <path d="M16.3734432,14.2113854 L14.3214261,14.2113854 L3.14445049,14.2113854 L0.829431506,14.2113854 C0.69544792,14.2113854 0.586446976,14.1050603 0.586446976,13.9743659 L0.586446976,2.17414925 C0.586446976,2.04345481 0.69544792,1.93712972 0.829431506,1.93712972 L2.21172612,1.93712972 C2.37366368,1.93712972 2.50494961,1.80910485 2.50494961,1.65110454 C2.50494961,1.49310423 2.37366368,1.36507937 2.21172612,1.36507937 L0.829431506,1.36507937 C0.372081058,1.36507937 0,1.72802625 0,2.17414925 L0,13.9743659 C0,14.4204889 0.372081058,14.7834358 0.829431506,14.7834358 L2.851227,14.7834358 L2.851227,15.41292 C2.851227,15.7715193 3.15031496,16.0632649 3.51793902,16.0632649 L6.45306704,16.0632649 L5.07139796,18.6946203 C4.99758384,18.8352303 5.05454739,19.00757 5.19869605,19.0796102 C5.24146759,19.1010049 5.28713226,19.1111111 5.33213229,19.1111111 C5.43867016,19.1111111 5.54145476,19.0542874 5.59333577,18.955399 L7.11195977,16.0632649 L10.3539168,16.0632649 L11.8725408,18.955399 C11.9244609,19.0542874 12.0272064,19.1111111 12.1337443,19.1111111 C12.1787443,19.1111111 12.224409,19.1009286 12.2671806,19.0796102 C12.4113292,19.00757 12.4683319,18.8352303 12.3944786,18.6946203 L11.0128096,16.0632649 L13.9479376,16.0632649 C14.3155616,16.0632649 14.6146496,15.7715574 14.6146496,15.41292 L14.6146496,14.7834358 L16.3734432,14.7834358 C16.5353807,14.7834358 16.6666667,14.6554109 16.6666667,14.4974106 C16.6666667,14.3394103 16.5353807,14.2113854 16.3734432,14.2113854 Z M14.0282026,15.41292 C14.0282026,15.4560907 13.9921948,15.4912146 13.9479376,15.4912146 L3.51793902,15.4912146 C3.47368182,15.4912146 3.43767398,15.4560907 3.43767398,15.41292 L3.43767398,14.7834358 L14.0282026,14.7834358 L14.0282026,15.41292 Z" id="Shape"></path>
                <path d="M3.35020704,1.88559251 L7.38386803,1.88559251 L10.0652358,1.88559251 L16.6665292,1.88559251 C16.8011652,1.88559251 16.910697,1.99385546 16.910697,2.12693189 L16.910697,4.8960634 C16.910697,5.05694338 17.0426223,5.18730159 17.2053485,5.18730159 C17.3680747,5.18730159 17.5,5.05694338 17.5,4.8960634 L17.5,2.12693189 C17.5,1.67267798 17.1261069,1.30311614 16.6665292,1.30311614 L10.3599266,1.30311614 L10.3599266,0.730658362 C10.3599266,0.327778871 10.0283062,0 9.62066568,0 L7.82847748,0 C7.42087625,0 7.08921654,0.327778871 7.08921654,0.730658362 L7.08921654,1.30311614 L3.35020704,1.30311614 C3.18748085,1.30311614 3.05555556,1.43347435 3.05555556,1.59435433 C3.05555556,1.7552343 3.18748085,1.88559251 3.35020704,1.88559251 Z M7.67851951,0.730658362 C7.67851951,0.648956343 7.74577863,0.582476373 7.82847748,0.582476373 L9.62066568,0.582476373 C9.70332524,0.582476373 9.77062364,0.648956343 9.77062364,0.730658362 L9.77062364,1.30311614 L7.6785588,1.30311614 L7.6785588,0.730658362 L7.67851951,0.730658362 Z" id="Shape"></path>
                <path d="M3.93213899,10.1015873 C3.75484599,10.1015873 3.61111111,10.2256356 3.61111111,10.3787284 L3.61111111,12.8276208 C3.61111111,12.9807136 3.75484599,13.1047619 3.93213899,13.1047619 L5.23452768,13.1047619 C5.41182067,13.1047619 5.55555556,12.9807136 5.55555556,12.8276208 L5.55555556,10.3787284 C5.55555556,10.2256356 5.41182067,10.1015873 5.23452768,10.1015873 L3.93213899,10.1015873 Z M4.9134998,12.5505167 L4.25316686,12.5505167 L4.25316686,10.6559064 L4.9134998,10.6559064 L4.9134998,12.5505167 Z" id="Shape"></path>
                <path d="M6.70991677,8.46349206 C6.53262377,8.46349206 6.38888889,8.59376474 6.38888889,8.75453916 L6.38888889,12.8137148 C6.38888889,12.9744892 6.53262377,13.1047619 6.70991677,13.1047619 L8.01230546,13.1047619 C8.18959845,13.1047619 8.33333333,12.9744892 8.33333333,12.8137148 L8.33333333,8.75453916 C8.33333333,8.59376474 8.18959845,8.46349206 8.01230546,8.46349206 L6.70991677,8.46349206 Z M7.69132038,12.5226677 L7.03098745,12.5226677 L7.03098745,9.04558626 L7.69132038,9.04558626 L7.69132038,12.5226677 Z" id="Shape"></path>
                <path d="M9.48769454,10.1015873 C9.31040155,10.1015873 9.16666667,10.2256356 9.16666667,10.3787284 L9.16666667,12.8276208 C9.16666667,12.9807136 9.31040155,13.1047619 9.48769454,13.1047619 L10.7900832,13.1047619 C10.9673762,13.1047619 11.1111111,12.9807136 11.1111111,12.8276208 L11.1111111,10.3787284 C11.1111111,10.2256356 10.9673762,10.1015873 10.7900832,10.1015873 L9.48769454,10.1015873 Z M10.4690554,12.5505167 L9.80872242,12.5505167 L9.80872242,10.6559064 L10.4690554,10.6559064 L10.4690554,12.5505167 Z" id="Shape"></path>
                <path d="M12.2654723,11.7396825 C12.0881793,11.7396825 11.9444444,11.8634789 11.9444444,12.0162607 L11.9444444,12.8281837 C11.9444444,12.9809655 12.0881793,13.1047619 12.2654723,13.1047619 L13.567861,13.1047619 C13.745154,13.1047619 13.8888889,12.9809655 13.8888889,12.8281837 C13.8888889,12.6754019 13.745154,12.5516055 13.567861,12.5516055 L12.5865002,12.5516055 L12.5865002,12.0162607 C12.5865002,11.8634789 12.4427653,11.7396825 12.2654723,11.7396825 Z" id="Path"></path>
                <path d="M19.8478406,14.4952002 L18.1362161,11.6843117 C18.5698605,11.2460792 18.8856361,10.7106126 19.0543043,10.1137806 C19.323895,9.15988287 19.1855393,8.16351593 18.6647364,7.30824785 C17.5896356,5.54260732 15.1999967,4.9356295 13.3378836,5.95492831 C11.4757307,6.97422712 10.8354678,9.2399181 11.9105686,11.0054832 C12.4313715,11.8607513 13.272286,12.4725191 14.2783681,12.7281642 C14.614352,12.8135175 14.9552289,12.8557227 15.2939577,12.8557227 C15.5900022,12.8557227 15.8843362,12.823437 16.172186,12.7595446 L17.8834525,15.5705086 C18.0932137,15.9151278 18.4751836,16.1079742 18.8674963,16.1079365 C19.0597542,16.1079365 19.2545183,16.0615825 19.432694,15.964122 C19.782601,15.7726334 20,15.4155677 20,15.0322887 C20,14.8444963 19.9474105,14.6588161 19.8478406,14.4952002 Z M14.432795,12.1816842 C13.5806624,11.9651893 12.8683972,11.446997 12.4272741,10.7226066 C11.5167044,9.22720751 12.0590284,7.30824785 13.6361957,6.44487064 C14.1550493,6.1608625 14.7220371,6.02598692 15.2820634,6.02598692 C16.424353,6.02598692 17.5369268,6.58770448 18.1479513,7.59112448 C18.5890346,8.31551497 18.7062272,9.15939255 18.4778886,9.96736366 C18.24955,10.7753348 17.7030093,11.4505801 16.93899,11.8688227 C16.1750104,12.2870652 15.2849673,12.3981037 14.432795,12.1816842 Z M19.1344615,15.4741043 C18.8777596,15.6146374 18.5483792,15.5309813 18.4002774,15.2877074 L16.7538527,12.5832559 C16.9188612,12.5194012 17.0804485,12.4447218 17.2374214,12.3588027 C17.3945135,12.2728082 17.5432916,12.1770828 17.6841535,12.0734368 L19.3310555,14.7780014 C19.3783144,14.8557359 19.4032964,14.9436917 19.4032964,15.0323264 C19.4032964,15.2140463 19.3002656,15.3833574 19.1344615,15.4741043 Z" id="Shape"></path>
                <path d="M17.9298772,9.81931391 C18.136361,9.16566273 18.087187,8.46586966 17.7914025,7.84885605 C17.7225356,7.70521835 17.5483016,7.64367028 17.4021836,7.71131183 C17.2560267,7.77899171 17.1933991,7.95022257 17.262266,8.09382195 C17.495579,8.58053454 17.534302,9.13274256 17.3712598,9.64881121 C17.2073207,10.1677158 16.8531592,10.6031895 16.3740156,10.8750587 C15.8669898,11.162794 15.2762397,11.239135 14.710759,11.090247 C14.1452393,10.9413206 13.67253,10.5848707 13.3798262,10.0865843 C12.7755054,9.05793445 13.1354383,7.73790857 14.1821295,7.14400423 C14.9474256,6.7098336 15.8971727,6.76785587 16.6018691,7.29181923 C16.7307118,7.3876288 16.9141099,7.36267998 17.0115609,7.23605806 C17.1090118,7.10947446 17.0836255,6.92919918 16.9547827,6.83342794 C16.0621257,6.16962094 14.8589437,6.09615416 13.8896206,6.6461394 C13.2472788,7.01059899 12.7877892,7.59909967 12.595812,8.30318501 C12.4038347,9.00727035 12.5023776,9.74270459 12.8732294,10.3739747 C13.2440811,11.0052831 13.8429034,11.4568144 14.5593376,11.6455209 C14.7985779,11.7085253 15.0413669,11.7396825 15.2825571,11.7396825 C15.7636895,11.7396825 16.2386215,11.6156666 16.6664464,11.3728852 C17.2734969,11.0285073 17.7221846,10.4767975 17.9298772,9.81931391 Z" id="Path"></path>
            </g>
        </g>
    </g>
</svg>