<?xml version="1.0" encoding="UTF-8"?>
<svg width="167px" height="133px" viewBox="0 0 167 133" version="1.1" xmlns="http://www.w3.org/2000/svg" xmlns:xlink="http://www.w3.org/1999/xlink">
    <!-- Generator: Sketch 52.3 (67297) - http://www.bohemiancoding.com/sketch -->
    <title>hot-water-bg</title>
    <desc>Created with Sketch.</desc>
    <g id="Smart-Coffee-Mobile" stroke="none" stroke-width="1" fill="none" fill-rule="evenodd">
        <g id="Homepage---Hover-Alternate" transform="translate(-19.000000, -470.000000)" fill="#F8E8D4">
          <path d="M57.9475323,494.613064 C71.4766242,481.352287 79.0340573,473.613064 97.3684304,470.613064 C115.702804,467.613064 132.97313,496.244461 145.918313,504 C158.863496,511.755539 173.369627,511.311556 175,524.883198 C175.716619,530.848515 181.223288,538.485109 184,550.32075 C187.540562,565.412276 187.712186,585.247958 179.428864,594.613064 C164.649286,611.322826 138.29449,594.613064 102.69937,594.613064 C67.1042511,594.613064 37.025035,598.098386 24,584 C15.852465,575.181053 16.5973894,564.512091 21.9080607,552 C25.0872798,544.50967 32.9956766,537.549622 32.9956766,526.613064 C32.9956766,497.407724 44.4184403,507.873841 57.9475323,494.613064 Z" id="hot-water-bg"></path>
        </g>
    </g>
</svg>
