<?xml version="1.0" encoding="UTF-8"?>
<svg width="24px" height="24px" viewBox="0 0 24 24" version="1.1" xmlns="http://www.w3.org/2000/svg" xmlns:xlink="http://www.w3.org/1999/xlink">
    <!-- Generator: Sketch 52.3 (67297) - http://www.bohemiancoding.com/sketch -->
    <title>Icon/24/Garbage/White</title>
    <desc>Created with Sketch.</desc>
    <g id="Icon/24/Garbage/White" stroke="none" stroke-width="1" fill="none" fill-rule="evenodd">
        <g>
            <rect id="Rectangle" x="0" y="0" width="24" height="24"></rect>
            <g id="garbage" transform="translate(3.000000, 2.000000)" fill="#FFFFFF">
                <path d="M17.4382802,2.94052276 L13.2274619,2.94052276 L13.2274619,2.24739954 C13.2274619,1.00817923 12.2288488,0 11.001387,0 L6.99861304,0 C5.77115118,0 4.77253814,1.00817923 4.77253814,2.24739954 L4.77253814,2.94052276 L0.561719834,2.94052276 C0.249653259,2.94052276 0,3.19256757 0,3.50762358 C0,3.82267959 0.249653259,4.0747244 0.561719834,4.0747244 L1.57697642,4.0747244 L1.57697642,17.3994932 C1.57697642,19.0713905 2.92510402,20.4324324 4.58113731,20.4324324 L13.4188627,20.4324324 C15.074896,20.4324324 16.4230236,19.0713905 16.4230236,17.3994932 L16.4230236,4.0747244 L17.4382802,4.0747244 C17.7503467,4.0747244 18,3.82267959 18,3.50762358 C18,3.19256757 17.7503467,2.94052276 17.4382802,2.94052276 Z M5.89597781,2.24739954 C5.89597781,1.6340905 6.39112344,1.13420164 6.99861304,1.13420164 L11.001387,1.13420164 C11.6088766,1.13420164 12.1040222,1.6340905 12.1040222,2.24739954 L12.1040222,2.94052276 L5.89597781,2.94052276 L5.89597781,2.24739954 Z M15.2995839,17.3994932 C15.2995839,18.4454792 14.4549237,19.2982308 13.4188627,19.2982308 L4.58113731,19.2982308 C3.54507628,19.2982308 2.70041609,18.4454792 2.70041609,17.3994932 L2.70041609,4.0747244 L15.3037448,4.0747244 L15.3037448,17.3994932 L15.2995839,17.3994932 Z" id="Shape"></path>
                <path d="M9.08910891,17.1777087 C9.38613861,17.1777087 9.62376238,16.9285393 9.62376238,16.6170776 L9.62376238,6.7084426 C9.62376238,6.39698089 9.38613861,6.14781153 9.08910891,6.14781153 C8.79207921,6.14781153 8.55445545,6.39698089 8.55445545,6.7084426 L8.55445545,16.6129248 C8.55445545,16.9243865 8.79207921,17.1777087 9.08910891,17.1777087 Z" id="Path"></path>
                <path d="M5.34653465,16.6352547 C5.64356436,16.6352547 5.88118812,16.3869079 5.88118812,16.0764743 L5.88118812,7.42986394 C5.88118812,7.11943035 5.64356436,6.87108347 5.34653465,6.87108347 C5.04950495,6.87108347 4.81188119,7.11943035 4.81188119,7.42986394 L4.81188119,16.0764743 C4.81188119,16.3869079 5.05346535,16.6352547 5.34653465,16.6352547 Z" id="Path"></path>
                <path d="M12.6534653,16.6352547 C12.950495,16.6352547 13.1881188,16.3869079 13.1881188,16.0764743 L13.1881188,7.42986394 C13.1881188,7.11943035 12.950495,6.87108347 12.6534653,6.87108347 C12.3564356,6.87108347 12.1188119,7.11943035 12.1188119,7.42986394 L12.1188119,16.0764743 C12.1188119,16.3869079 12.3564356,16.6352547 12.6534653,16.6352547 Z" id="Path"></path>
            </g>
        </g>
    </g>
</svg>