<?xml version="1.0" encoding="UTF-8"?>
<svg width="200px" height="200px" viewBox="0 0 200 200" version="1.1" xmlns="http://www.w3.org/2000/svg" xmlns:xlink="http://www.w3.org/1999/xlink">
    <!-- Generator: Sketch 52.3 (67297) - http://www.bohemiancoding.com/sketch -->
    <title>Pictogram/Coffeemachine/Double</title>
    <desc>Created with Sketch.</desc>
    <g id="Shared-Styles" stroke="none" stroke-width="1" fill="none" fill-rule="evenodd">
        <g id="Iconography" transform="translate(-672.000000, -516.000000)">
            <g id="Pictogram/Coffeemachine/Double" transform="translate(672.000000, 516.000000)">
                <g>
                    <path d="M200,27.5862069 L200,48.2758621 L0,48.2758621 L0,27.5862069 C0,12.3501483 12.3501483,0 27.5862069,0 L172.413793,0 C187.649852,0 200,12.3501483 200,27.5862069 Z" id="Path" fill="#898890"></path>
                    <path d="M193.103448,165.517241 L0,165.517241 L0,179.310345 C0,190.736126 9.26387414,200 20.6896552,200 L179.310345,200 C190.736126,200 200,190.736126 200,179.310345 L200,165.517241 L193.103448,165.517241 Z" id="Path" fill="#898890"></path>
                    <polygon id="Path" fill="#ACABB1" points="62.0689655 151.724138 6.89655172 151.724138 6.89655172 165.517241 193.103448 165.517241 193.103448 151.724138"></polygon>
                    <polygon id="Path" fill="#57565C" points="13.7931034 48.2758621 186.206897 48.2758621 186.206897 151.724138 13.7931034 151.724138"></polygon>
                    <path d="M110.344828,89.6551724 L110.344828,124.137931 C110.344828,139.37399 122.694976,151.724138 137.931034,151.724138 C153.167093,151.724138 165.517241,139.37399 165.517241,124.137931 L165.517241,89.6551724 L110.344828,89.6551724 Z" id="Path" fill="#4B331A"></path>
                    <path d="M51.7241379,62.0689655 L72.4137931,62.0689655 C80.0309806,62.0689655 86.2068966,55.8930496 86.2068966,48.2758621 L37.9310345,48.2758621 C37.9310345,55.8930496 44.1069504,62.0689655 51.7241379,62.0689655 Z" id="Path" fill="#C6C5CA"></path>
                    <polygon id="Path" fill="#898890" points="55.1724138 62.0689655 68.9655172 62.0689655 68.9655172 75.862069 55.1724138 75.862069"></polygon>
                    <path d="M127.586207,62.0689655 L148.275862,62.0689655 C155.89305,62.0689655 162.068966,55.8930496 162.068966,48.2758621 L113.793103,48.2758621 C113.793103,55.8930496 119.969019,62.0689655 127.586207,62.0689655 Z" id="Path" fill="#C6C5CA"></path>
                    <polygon id="Path" fill="#898890" points="131.034483 62.0689655 144.827586 62.0689655 144.827586 75.862069 131.034483 75.862069"></polygon>
                    <path d="M27.5862069,10.3448276 L82.7586207,10.3448276 C86.5672147,10.3448276 89.6551724,13.4327853 89.6551724,17.2413793 L89.6551724,31.0344828 C89.6551724,34.8430767 86.5672147,37.9310345 82.7586207,37.9310345 L27.5862069,37.9310345 C23.7776129,37.9310345 20.6896552,34.8430767 20.6896552,31.0344828 L20.6896552,17.2413793 C20.6896552,13.4327853 23.7776129,10.3448276 27.5862069,10.3448276 Z" id="Path" fill="#57565C"></path>
                    <path d="M135.689992,107.900054 L142.504041,105.919989 C148.287648,104.237944 154.413052,104.103246 160.265692,105.527681 L165.517241,106.803947 L165.517241,89.6551724 L110.344828,89.6551724 L110.344828,106.803947 L119.310681,108.597117 C124.747441,109.683122 130.364359,109.444033 135.689992,107.900054 Z" id="Path" fill="#D8D7DA"></path>
                    <path d="M34.4827586,89.6551724 L34.4827586,124.137931 C34.4827586,139.37399 46.8329069,151.724138 62.0689655,151.724138 C77.3050241,151.724138 89.6551724,139.37399 89.6551724,124.137931 L89.6551724,89.6551724 L34.4827586,89.6551724 Z" id="Path" fill="#4B331A"></path>
                    <path d="M179.310345,189.655172 L20.6896552,189.655172 C14.9767647,189.655172 10.3448276,185.023235 10.3448276,179.310345 C10.3448276,177.406048 11.8888065,175.862069 13.7931034,175.862069 C15.6974004,175.862069 17.2413793,177.406048 17.2413793,179.310345 C17.2413793,181.214642 18.7853582,182.758621 20.6896552,182.758621 L179.310345,182.758621 C181.214642,182.758621 182.758621,181.214642 182.758621,179.310345 C182.758621,177.406048 184.3026,175.862069 186.206897,175.862069 C188.111194,175.862069 189.655172,177.406048 189.655172,179.310345 C189.655172,185.023235 185.023235,189.655172 179.310345,189.655172 Z" id="Path" fill="#57565C"></path>
                    <g id="Group" transform="translate(51.724138, 20.689655)" fill="#E7E7E8">
                        <path d="M10.3448276,6.89655172 L3.44827586,6.89655172 C1.54397888,6.89655172 0,5.35257284 0,3.44827586 C0,1.54397888 1.54397888,0 3.44827586,0 L10.3448276,0 C12.2491246,0 13.7931034,1.54397888 13.7931034,3.44827586 C13.7931034,5.35257284 12.2491246,6.89655172 10.3448276,6.89655172 Z" id="Path"></path>
                        <path d="M27.5862069,6.89655172 L20.6896552,6.89655172 C18.7853582,6.89655172 17.2413793,5.35257284 17.2413793,3.44827586 C17.2413793,1.54397888 18.7853582,0 20.6896552,0 L27.5862069,0 C29.4905039,0 31.0344828,1.54397888 31.0344828,3.44827586 C31.0344828,5.35257284 29.4905039,6.89655172 27.5862069,6.89655172 Z" id="Path"></path>
                    </g>
                    <path d="M44.8275862,24.137931 C44.8275862,27.946525 41.7396284,31.0344828 37.9310345,31.0344828 C34.1224405,31.0344828 31.0344828,27.946525 31.0344828,24.137931 C31.0344828,20.3293371 34.1224405,17.2413793 37.9310345,17.2413793 C41.7396284,17.2413793 44.8275862,20.3293371 44.8275862,24.137931 Z" id="Path" fill="#FFAF46"></path>
                    <path d="M59.8279228,107.900054 L66.641972,105.919989 C72.4255793,104.237944 78.5509832,104.103246 84.4036233,105.527681 L89.6551724,106.803947 L89.6551724,89.6551724 L34.4827586,89.6551724 L34.4827586,106.803947 L43.4486125,108.597117 C48.8853716,109.683122 54.5022897,109.444033 59.8279228,107.900054 Z" id="Path" fill="#D8D7DA"></path>
                </g>
            </g>
        </g>
    </g>
</svg>