<?xml version="1.0" encoding="UTF-8"?>
<svg width="110px" height="110px" viewBox="0 0 110 110" version="1.1" xmlns="http://www.w3.org/2000/svg" xmlns:xlink="http://www.w3.org/1999/xlink">
    <!-- Generator: Sketch 52.3 (67297) - http://www.bohemiancoding.com/sketch -->
    <title>CoffeeIndicator</title>
    <desc>Created with Sketch.</desc>
    <defs>
        <linearGradient x1="50%" y1="91.9561034%" x2="50%" y2="-1.11022302e-14%" id="linearGradient-1">
            <stop stop-color="#BDA07A" offset="0%"></stop>
            <stop stop-color="#8B572A" offset="100%"></stop>
        </linearGradient>
    </defs>
    <g id="Smart-Coffee-Mobile" stroke="none" stroke-width="1" fill="none" fill-rule="evenodd">
        <g id="Homepage---Default" transform="translate(-15.000000, -156.000000)">
            <g id="CoffeeIndicator" transform="translate(20.000000, 161.000000)">
                <circle id="CoffeeGrey" stroke-opacity="0.233610734" stroke="#979797" stroke-width="9" stroke-linecap="round" cx="50" cy="50" r="50"></circle>
                <path d="M50,100 C77.6142375,100 100,77.6142375 100,50 C100,22.3857625 77.6142375,0 50,0 C22.3857625,0 0,22.3857625 0,50 C0,77.6142375 22.3857625,100 50,100 Z" id="CoffeColor" stroke="url(#linearGradient-1)" stroke-width="9" stroke-linecap="round" stroke-dasharray="279" transform="translate(50.000000, 50.000000) rotate(180.000000) translate(-50.000000, -50.000000) "></path>
                <g id="Icon/24/Coffeebean/Black" transform="translate(25.000000, 25.000000)">
                    <g>
                        <rect id="Rectangle" x="0" y="0" width="50" height="50"></rect>
                        <path d="M9.83327019,37.6139433 C6.53173068,31.7481924 8.77834665,22.5483416 15.6083544,15.665107 C23.3645311,7.85171994 34.0891302,5.9889714 39.5647359,11.5046534 C39.5711684,11.5118779 39.5765464,11.5200586 39.5852987,11.5273893 C38.4894605,14.7396292 34.9996924,21.5744173 24.5390352,25.2696352 C14.9565669,28.6564314 11.2601165,34.0410103 9.83327019,37.6139433 Z M41.1048357,13.5126354 C40.2748374,15.4633526 38.8302755,18.0126398 36.341335,20.5200674 C33.8395296,23.0417315 30.2837497,25.5183488 25.2471331,27.2983345 C15.0248986,30.9098334 12.1687807,36.8221184 11.3718937,39.6871581 C11.4095394,39.7254053 11.4419126,39.7650338 11.4785038,39.8022186 C16.9535823,45.3181131 27.6786032,43.4554708 35.4342526,35.6408088 C42.3353338,28.687773 44.5547436,19.3686119 41.1048357,13.5126354 Z" id="Shape" fill="#222222"></path>
                    </g>
                </g>
            </g>
        </g>
    </g>
</svg>
