<?xml version="1.0" encoding="UTF-8"?>
<svg width="180px" height="200px" viewBox="0 0 180 200" version="1.1" xmlns="http://www.w3.org/2000/svg" xmlns:xlink="http://www.w3.org/1999/xlink">
    <!-- Generator: Sketch 52.3 (67297) - http://www.bohemiancoding.com/sketch -->
    <title>Pictogram/Coffeemachine/Single</title>
    <desc>Created with Sketch.</desc>
    <g id="Shared-Styles" stroke="none" stroke-width="1" fill="none" fill-rule="evenodd">
        <g id="Iconography" transform="translate(-426.000000, -517.000000)">
            <g id="Pictogram/Coffeemachine/Single" transform="translate(426.000000, 517.000000)">
                <g transform="translate(0.000000, 0.000000)">
                    <path d="M172.687225,27.6903713 L172.687225,48.4581498 L7.04845815,48.4581498 L7.04845815,27.6903713 C7.04845815,12.3967819 19.4076741,0 34.6549192,0 L145.080764,0 C160.328009,0 172.687225,12.3967819 172.687225,27.6903713 Z" id="Path" fill="#898890"></path>
                    <path d="M27.6516435,200 L152.084039,200 C167.356239,200 179.735683,187.693376 179.735683,172.511013 L179.735683,165.638767 L0,165.638767 L0,172.511013 C0,187.693376 12.3794438,200 27.6516435,200 Z M27.6516435,186.255507 L152.084039,186.255507 C157.022315,186.253829 161.584228,183.634792 164.053366,179.38326 C161.584228,183.634792 157.022315,186.253829 152.084039,186.255507 L27.6516435,186.255507 C22.7133676,186.253829 18.1514543,183.634792 15.6823164,179.38326 C18.1514543,183.634792 22.7133676,186.253829 27.6516435,186.255507 Z" id="Shape" fill="#898890" fill-rule="nonzero"></path>
                    <polygon id="Path" fill="#ACABB1" points="172.687225 151.54185 7.04845815 151.54185 7.04845815 165.638767 172.687225 165.638767"></polygon>
                    <polygon id="Path" fill="#57565C" points="21.1453744 48.4581498 159.471366 48.4581498 159.471366 151.54185 21.1453744 151.54185"></polygon>
                    <path d="M117.180617,124.229075 L124.229075,124.229075 C132.014042,124.229075 138.325991,118.114374 138.325991,110.572687 C138.325991,103.031 132.014042,96.9162996 124.229075,96.9162996 L117.180617,96.9162996 L117.180617,124.229075 Z" id="Path" fill="#57565C"></path>
                    <path d="M79.9244808,62.5550661 L100.692259,62.5550661 C108.338209,62.5550661 114.537445,56.2431167 114.537445,48.4581498 L66.0792952,48.4581498 C66.0792952,56.2431167 72.2785311,62.5550661 79.9244808,62.5550661 Z" id="Path" fill="#D3D2D6"></path>
                    <polygon id="Path" fill="#A3A2A9" points="82.8193833 61.6740088 96.9162996 61.6740088 96.9162996 75.7709251 82.8193833 75.7709251"></polygon>
                    <path d="M62.3788546,10.5726872 L117.356828,10.5726872 C121.152,10.5726872 124.229075,13.6300375 124.229075,17.4008811 L124.229075,31.0572687 C124.229075,34.8281123 121.152,37.8854626 117.356828,37.8854626 L62.3788546,37.8854626 C58.583683,37.8854626 55.5066079,34.8281123 55.5066079,31.0572687 L55.5066079,17.4008811 C55.5066079,13.6300375 58.583683,10.5726872 62.3788546,10.5726872 Z" id="Path" fill="#57565C"></path>
                    <path d="M152.030524,189.427313 L27.6984136,189.427313 C21.5347597,189.40826 15.8432873,186.032513 12.7471268,180.559265 C11.8634726,178.870526 12.4452678,176.766096 14.0608026,175.806546 C15.678024,174.846996 17.7438176,175.382196 18.7252806,177.012046 C20.5836515,180.295995 24.0002214,182.322482 27.6984136,182.332875 L152.030524,182.332875 C155.732089,182.324215 159.150345,180.299459 161.010402,177.012046 C161.991865,175.382196 164.057659,174.846996 165.67488,175.806546 C167.290415,176.766096 167.87221,178.870526 166.988557,180.559265 C163.890709,186.034245 158.195864,189.411725 152.030524,189.427313 Z" id="Path" fill="#57565C"></path>
                    <path d="M121.255507,127.753304 L114.427313,127.753304 C112.541891,127.753304 111.013216,126.214766 111.013216,124.317181 L111.013216,96.8281938 C111.013216,94.930608 112.541891,93.3920705 114.427313,93.3920705 L121.255507,93.3920705 C130.682615,93.3920705 138.325991,101.084759 138.325991,110.572687 C138.325991,120.060616 130.682615,127.753304 121.255507,127.753304 Z M117.84141,120.881057 L121.255507,120.881057 C126.911772,120.881057 131.497797,116.265444 131.497797,110.572687 C131.497797,104.87993 126.911772,100.264317 121.255507,100.264317 L117.84141,100.264317 L117.84141,120.881057 Z" id="Shape" fill="#D8D7DA" fill-rule="nonzero"></path>
                    <path d="M96.9162996,27.3127753 L89.8678414,27.3127753 C87.9215996,27.3127753 86.3436123,25.7347881 86.3436123,23.7885463 C86.3436123,21.8423044 87.9215996,20.2643172 89.8678414,20.2643172 L96.9162996,20.2643172 C98.8625414,20.2643172 100.440529,21.8423044 100.440529,23.7885463 C100.440529,25.7347881 98.8625414,27.3127753 96.9162996,27.3127753 Z" id="Path" fill="#E0E0E2"></path>
                    <path d="M114.537445,27.3127753 L107.488987,27.3127753 C105.542745,27.3127753 103.964758,25.7347881 103.964758,23.7885463 C103.964758,21.8423044 105.542745,20.2643172 107.488987,20.2643172 L114.537445,20.2643172 C116.483687,20.2643172 118.061674,21.8423044 118.061674,23.7885463 C118.061674,25.7347881 116.483687,27.3127753 114.537445,27.3127753 Z" id="Path" fill="#E0E0E2"></path>
                    <path d="M118.061674,123.719697 L118.061674,106.237454 L112.778315,104.950272 C106.890224,103.513654 100.727717,103.649504 94.9090764,105.345936 L88.0537528,107.342936 C82.6958608,108.898423 77.0432257,109.136161 71.5752285,108.039169 L62.5550661,106.230661 L62.5550661,123.719697 C62.5550661,139.08607 74.9800225,151.54185 90.30837,151.54185 C105.636718,151.54185 118.061674,139.08607 118.061674,123.719697 Z" id="Path" fill="#997055"></path>
                    <path d="M88.0537528,107.900955 L94.9090764,105.943873 C100.727717,104.281351 106.890224,104.148217 112.778315,105.556118 L118.061674,106.81757 L118.061674,89.8678414 L62.5550661,89.8678414 L62.5550661,106.81757 L71.5752285,108.589927 C77.0449195,109.663327 82.6958608,109.427013 88.0537528,107.900955 Z" id="Path" fill="#D8D7DA"></path>
                    <path d="M79.2951542,23.7885463 C79.2951542,27.68103 76.1391797,30.8370044 72.246696,30.8370044 C68.3542123,30.8370044 65.1982379,27.68103 65.1982379,23.7885463 C65.1982379,19.8960626 68.3542123,16.7400881 72.246696,16.7400881 C76.1391797,16.7400881 79.2951542,19.8960626 79.2951542,23.7885463 Z" id="Path" fill="#8CC5D2"></path>
                </g>
            </g>
        </g>
    </g>
</svg>