<?xml version="1.0" encoding="UTF-8"?>
<svg width="252px" height="252px" viewBox="0 0 252 252" version="1.1" xmlns="http://www.w3.org/2000/svg" xmlns:xlink="http://www.w3.org/1999/xlink">
    <!-- Generator: Sketch 52.3 (67297) - http://www.bohemiancoding.com/sketch -->
    <title>Group</title>
    <desc>Created with Sketch.</desc>
    <g id="Smart-Coffee-Mobile" stroke="none" stroke-width="1" fill="none" fill-rule="evenodd">
        <g id="Splash-Screen" transform="translate(-62.000000, -208.000000)">
            <g id="Group" transform="translate(62.000000, 208.000000)">
                <circle id="Oval" stroke="#57565C" stroke-width="2" cx="126" cy="126" r="125"></circle>
                <g id="Logo/Primary/Dark" transform="translate(11.000000, 102.000000)" fill="#57565C">
                    <g>
                        <g id="Group-2" transform="translate(55.000000, 7.000000)">
                            <text id="smart-coffee" font-family="Helvetica-Bold, Helvetica" font-size="24" font-weight="bold">
                                <tspan x="13.1386719" y="25">smart coffee</tspan>
                            </text>
                            <path d="M37.5,1.59322034 L173.803131,1.59322034" id="Line-Copy" stroke="#57565C" stroke-width="2"></path>
                            <path d="M0.5,35.5932203 L136.803131,35.5932203" id="Line-Copy-2" stroke="#57565C" stroke-width="2"></path>
                        </g>
                        <g id="coffee-cup-(1)">
                            <path d="M42.2259273,41.3332284 L32.1899313,41.3332284 C34.746671,40.2993512 36.701803,38.8285871 38.1923953,37.0474332 C44.2747691,36.1125824 47,31.0203213 47,26.3333228 C47,23.0060731 45.1699077,20.2280471 42.8014268,19.7422607 C42.8016133,19.7170557 42.801893,19.6918507 42.8020795,19.6667401 C42.8020795,19.2500551 42.6374113,18.83337 42.3081681,18.5000409 C41.978925,18.1667118 41.5673477,18 41.1557704,18 L3.29252504,18 C2.88094775,18 2.46937047,18.1667118 2.14012729,18.5000409 C1.81088411,18.83337 1.6462159,19.2500551 1.6462159,19.6667401 C1.70990128,28.6291497 3.25196407,37.6912465 12.2583642,41.3333228 L2.14012729,41.3333228 C0.987729538,41.3333228 0,42.2499544 0,43.5000094 C0,44.4999969 0.658486359,45.250011 1.81088411,45.4999843 L12.264425,46.2499984 C12.5113341,46.2499984 12.7583364,46.4167102 12.8405772,46.6666834 C13.2521545,47.5000535 14.0752158,48 14.9807045,48 L28.6444363,48 C29.5498318,48 30.3729863,47.4999591 30.7022295,46.6666834 C30.7845636,46.4167102 31.0314727,46.2499984 31.2783818,46.2499984 L42.4727431,45.4999843 L42.5550772,45.4999843 C43.707475,45.250011 44.3659613,44.4999969 44.3659613,43.5000094 C44.3659613,42.3332159 43.4605659,41.3332284 42.2259273,41.3332284 Z M42.8020795,21.5000031 C44.2013864,22.0000441 45.27145,24.0000189 45.27145,26.3333228 C45.27145,29.5807095 43.7919537,33.4936217 39.6838268,34.9131261 C39.7526406,34.7948419 39.8199625,34.6756138 39.8858857,34.5554416 C42.1719392,30.5408598 42.64226,25.7064073 42.8020795,21.5000031 Z M3.29252504,19.6666457 L41.1558636,19.6666457 C41.0735295,30.9165749 38.6864932,41.3332284 22.224241,41.3332284 C5.76198875,41.3332284 3.37485914,30.9165749 3.29252504,19.6666457 Z M42.3905022,43.8332442 L31.3607159,44.5832583 C30.5375613,44.6666142 29.7968341,45.1665607 29.3852568,45.9165749 C29.2205886,46.1665481 28.9736795,46.3332599 28.7267704,46.3332599 L14.9807978,46.3332599 C14.7338887,46.3332599 14.4868864,46.1665481 14.3223114,45.9165749 C13.9107341,45.1665607 13.1699137,44.6666142 12.3468523,44.5832583 L2.05788643,43.8332442 C1.64630914,43.7498883 1.64630914,43.5832709 1.64630914,43.499915 C1.64630914,43.2499418 1.89321821,42.9998741 2.14022053,42.9998741 L42.3081681,42.9998741 C42.5550772,42.9998741 42.8020795,43.2498474 42.8020795,43.499915 C42.8020795,43.5832709 42.8020795,43.7498883 42.3905022,43.8332442 Z" id="Shape"></path>
                            <path d="M21.9166431,6.91665578 C20.6666667,8.16663022 20,9.41669905 20,10.7500303 C20,12.0833615 20.6666667,13.4166928 21.9166431,14.750024 C22.0833569,14.9167376 22.2499764,15 22.4999528,15 C22.7499292,15 22.9166431,14.9166432 23.0832625,14.750024 C23.4165959,14.4166912 23.4165959,13.9166448 23.0832625,13.583312 C22.1666195,12.5833135 21.6665723,11.6666719 21.6665723,10.7499359 C21.6665723,9.83319986 22.1666195,8.91655824 23.0832625,8.08327341 C24.3333333,6.91665578 25,5.58332455 25,4.24999331 C25,2.91666208 24.4166903,1.49997404 23.0833569,0.249999607 C22.7500236,-0.0833332022 22.2499764,-0.0833332022 21.9166431,0.249999607 C21.5833097,0.583332416 21.5833097,1.08337883 21.9166431,1.41671164 C22.8332861,2.41671007 23.3333333,3.33335169 23.3333333,4.25008772 C23.3333333,5.16682374 22.8332861,6.08327656 21.9166431,6.91665578 Z" id="Path"></path>
                            <path d="M29,10.750057 C29,12.0833799 29.6666667,13.4167027 30.9166431,14.7500256 C31.0833569,14.9167381 31.2499764,15 31.4999528,15 C31.6666667,15 31.9166431,14.9166437 32,14.7500256 C32.3333333,14.4166949 32.3333333,13.9166516 32,13.5833209 C31.0833569,12.5833287 30.5833097,11.6666929 30.5833097,10.7499626 C30.5833097,9.83323238 31.0833569,8.91659652 32,8.08331694 C33.3333333,6.91661225 34,5.58328941 34,4.24996657 C34,2.83328744 33.4166903,1.4999646 32.0833569,0.249998033 C31.7500236,-0.0833326778 31.2499764,-0.0833326778 30.9166431,0.249998033 C30.5833097,0.583328744 30.5833097,1.08337201 30.9166431,1.41670272 C31.8332861,2.41669486 32.3333333,3.33333071 32.3333333,4.25006097 C32.3333333,5.16679122 31.8332861,6.0000708 30.9166431,6.91670666 C29.6666667,8.16667322 29,9.41673419 29,10.750057 Z" id="Path"></path>
                            <path d="M11,10.750057 C11,12.0833799 11.6666667,13.4167027 12.9166431,14.7500256 C13.0833569,14.9167381 13.2499764,15 13.4999528,15 C13.6666667,15 13.9166431,14.9166437 14,14.7500256 C14.3333333,14.4166949 14.3333333,13.9166516 14,13.5833209 C13.0833569,12.5833287 12.5833097,11.6666929 12.5833097,10.7499626 C12.5833097,9.83323238 13.0833569,8.91659652 14,8.08331694 C15.3333333,6.91661225 16,5.58328941 16,4.24996657 C16,2.83328744 15.4166903,1.4999646 14.0833569,0.249998033 C13.7500236,-0.0833326778 13.2499764,-0.0833326778 12.9166431,0.249998033 C12.5833097,0.583328744 12.5833097,1.08337201 12.9166431,1.41670272 C13.8332861,2.41669486 14.3333333,3.33333071 14.3333333,4.25006097 C14.3333333,5.16679122 13.8332861,6.0000708 12.9166431,6.91670666 C11.6666667,8.16667322 11,9.41673419 11,10.750057 Z" id="Path"></path>
                            <path d="M17.2946832,37.3765775 C11.1540159,36.402524 8.04047529,33.155679 6.74309325,26.661897 C6.65658152,26.2560184 6.13770708,25.9313339 5.7052464,26.012528 C5.27278571,26.0937221 4.92683676,26.5807029 5.01334849,26.9865815 C6.3971443,34.2108346 10.116169,37.8636502 16.9487343,39 C17.035246,39 17.035246,39 17.1217577,39 C17.5542184,39 17.9001674,38.7565096 17.9866791,38.350631 C18.0730928,37.8636502 17.7271439,37.4577716 17.2946832,37.3765775 Z" id="Path"></path>
                        </g>
                    </g>
                </g>
            </g>
        </g>
    </g>
</svg>