<?xml version="1.0" encoding="UTF-8"?>
<svg width="110px" height="110px" viewBox="0 0 110 110" version="1.1" xmlns="http://www.w3.org/2000/svg" xmlns:xlink="http://www.w3.org/1999/xlink">
    <!-- Generator: Sketch 52.3 (67297) - http://www.bohemiancoding.com/sketch -->
    <title>RubbishIndicator</title>
    <desc>Created with Sketch.</desc>
    <defs>
        <linearGradient x1="50%" y1="100%" x2="46.2853244%" y2="0%" id="linearGradient-1">
            <stop stop-color="#5D8E1B" offset="0%"></stop>
            <stop stop-color="#2B4F0E" offset="100%"></stop>
        </linearGradient>
    </defs>
    <g id="Smart-Coffee-Mobile" stroke="none" stroke-width="1" fill="none" fill-rule="evenodd">
        <g id="Homepage---Default" transform="translate(-251.000000, -156.000000)">
            <g id="RubbishIndicator" transform="translate(256.000000, 161.000000)">
                <circle id="RubbishGrey" stroke-opacity="0.233610734" stroke="#979797" stroke-width="9" stroke-linecap="round" cx="50" cy="50" r="50"></circle>
                <path d="M50,100 C77.6142375,100 100,77.6142375 100,50 C100,22.3857625 77.6142375,0 50,0 C22.3857625,0 0,22.3857625 0,50 C0,77.6142375 22.3857625,100 50,100 Z" id="RubbishColor" stroke="url(#linearGradient-1)" stroke-width="9" stroke-linecap="round" stroke-dasharray="160" transform="translate(50.000000, 50.000000) rotate(180.000000) translate(-50.000000, -50.000000) "></path>
                <g id="Icon/24/Garbage/Black" transform="translate(25.000000, 25.000000)">
                    <g>
                        <rect id="Rectangle" x="0" y="0" width="50" height="50"></rect>
                        <g id="garbage" transform="translate(6.250000, 4.166667)" fill="#102129">
                            <path d="M36.3297503,6.12608908 L27.5572122,6.12608908 L27.5572122,4.68208237 C27.5572122,2.1003734 25.4767684,0 22.9195562,0 L14.5804438,0 C12.0232316,0 9.94278779,2.1003734 9.94278779,4.68208237 L9.94278779,6.12608908 L1.17024965,6.12608908 C0.520110957,6.12608908 0,6.65118243 0,7.30754912 C0,7.96391581 0.520110957,8.48900916 1.17024965,8.48900916 L3.28536755,8.48900916 L3.28536755,36.2489443 C3.28536755,39.7320635 6.09396671,42.5675676 9.54403606,42.5675676 L27.9559639,42.5675676 C31.4060333,42.5675676 34.2146325,39.7320635 34.2146325,36.2489443 L34.2146325,8.48900916 L36.3297503,8.48900916 C36.979889,8.48900916 37.5,7.96391581 37.5,7.30754912 C37.5,6.65118243 36.979889,6.12608908 36.3297503,6.12608908 Z M12.2832871,4.68208237 C12.2832871,3.40435522 13.3148405,2.36292007 14.5804438,2.36292007 L22.9195562,2.36292007 C24.1851595,2.36292007 25.2167129,3.40435522 25.2167129,4.68208237 L25.2167129,6.12608908 L12.2832871,6.12608908 L12.2832871,4.68208237 Z M31.8741331,36.2489443 C31.8741331,38.4280817 30.1144244,40.2046475 27.9559639,40.2046475 L9.54403606,40.2046475 C7.38557559,40.2046475 5.62586685,38.4280817 5.62586685,36.2489443 L5.62586685,8.48900916 L31.8828017,8.48900916 L31.8828017,36.2489443 L31.8741331,36.2489443 Z" id="Shape"></path>
                            <path d="M18.9356436,35.7868931 C19.5544554,35.7868931 20.049505,35.2677902 20.049505,34.6189117 L20.049505,13.9759221 C20.049505,13.3270435 19.5544554,12.8079407 18.9356436,12.8079407 C18.3168317,12.8079407 17.8217822,13.3270435 17.8217822,13.9759221 L17.8217822,34.61026 C17.8217822,35.2591385 18.3168317,35.7868931 18.9356436,35.7868931 Z" id="Path"></path>
                            <path d="M11.1386139,34.6567807 C11.7574257,34.6567807 12.2524752,34.1393914 12.2524752,33.4926547 L12.2524752,15.4788832 C12.2524752,14.8321466 11.7574257,14.3147572 11.1386139,14.3147572 C10.519802,14.3147572 10.0247525,14.8321466 10.0247525,15.4788832 L10.0247525,33.4926547 C10.0247525,34.1393914 10.5280528,34.6567807 11.1386139,34.6567807 Z" id="Path"></path>
                            <path d="M26.3613861,34.6567807 C26.980198,34.6567807 27.4752475,34.1393914 27.4752475,33.4926547 L27.4752475,15.4788832 C27.4752475,14.8321466 26.980198,14.3147572 26.3613861,14.3147572 C25.7425743,14.3147572 25.2475248,14.8321466 25.2475248,15.4788832 L25.2475248,33.4926547 C25.2475248,34.1393914 25.7425743,34.6567807 26.3613861,34.6567807 Z" id="Path"></path>
                        </g>
                    </g>
                </g>
            </g>
        </g>
    </g>
</svg>