<?xml version="1.0" encoding="UTF-8"?>
<svg width="110px" height="110px" viewBox="0 0 110 110" version="1.1" xmlns="http://www.w3.org/2000/svg" xmlns:xlink="http://www.w3.org/1999/xlink">
    <!-- Generator: Sketch 52.3 (67297) - http://www.bohemiancoding.com/sketch -->
    <title>WaterIndicator</title>
    <desc>Created with Sketch.</desc>
    <defs>
        <linearGradient x1="50%" y1="100%" x2="50%" y2="3.061617e-15%" id="linearGradient-1">
            <stop stop-color="#51BAEC" offset="0%"></stop>
            <stop stop-color="#214493" offset="100%"></stop>
        </linearGradient>
    </defs>
    <g id="Smart-Coffee-Mobile" stroke="none" stroke-width="1" fill="none" fill-rule="evenodd">
        <g id="Homepage---Default" transform="translate(-133.000000, -156.000000)">
            <g id="WaterIndicator" transform="translate(138.000000, 161.000000)">
                <circle id="WaterGrey" stroke-opacity="0.233610734" stroke="#979797" stroke-width="9" stroke-linecap="round" cx="50" cy="50" r="50"></circle>
                <path d="M50,100 C77.6142375,100 100,77.6142375 100,50 C100,22.3857625 77.6142375,0 50,0 C22.3857625,0 0,22.3857625 0,50 C0,77.6142375 22.3857625,100 50,100 Z" id="WaterColor" stroke="url(#linearGradient-1)" stroke-width="9" stroke-linecap="round" stroke-dasharray="272" transform="translate(50.000000, 50.000000) rotate(180.000000) translate(-50.000000, -50.000000) "></path>
                <g id="Icon/24/Drop/Black" transform="translate(25.000000, 25.000000)">
                    <g>
                        <rect id="Rectangle" x="0" y="0" width="50" height="50"></rect>
                        <g id="drop" transform="translate(10.416667, 4.166667)" fill="#102129">
                            <path d="M23.1108718,16.7654167 C20.0000033,12.5740625 16.7836504,8.23834325 16.4784826,4.01997738 L16.1895521,0 L13.2580992,2.80876341 C7.91881518,7.92112595 0,21.1037463 0,28.8363578 C0,36.7641799 6.54210558,43.2098765 14.5833333,43.2098765 C22.625252,43.2098765 29.1666667,36.7641799 29.1666667,28.8363578 C29.1665515,24.9238597 26.2242738,20.9607431 23.1108718,16.7654167 Z M14.5832182,39.4621726 C8.63855044,39.4621726 3.80181436,34.6966495 3.80181436,28.8363578 C3.80181436,23.6712203 8.77236361,14.0028455 13.5161675,8.13551718 C14.8654696,12.0018229 17.5769714,15.6564613 20.04146,18.9775392 C22.7788723,22.665091 25.3625492,26.1490335 25.3625492,28.8363578 C25.3626643,34.696536 20.5273101,39.4621726 14.5832182,39.4621726 Z" id="Shape"></path>
                            <path d="M11.7543578,33.8609906 C11.4330093,33.5310816 11.1379582,33.15021 10.8463076,32.7549702 C10.5361808,32.3376168 10.3195682,31.9789712 10.0627161,31.4897763 L9.85789188,31.1038534 L9.75383619,30.909545 L9.72878575,30.8626236 L9.72164467,30.8509493 C9.69727433,30.8078445 9.74998228,30.9004525 9.74465481,30.8901253 L9.74329461,30.8848495 L9.73547343,30.8639706 L9.70180835,30.7777609 L9.4200192,30.0878592 C9.35620291,29.8466294 9.27379716,29.6117979 9.20011938,29.3731498 C9.15013185,29.1278789 9.10139117,28.8814854 9.04086204,28.6387963 C8.96967798,28.1419683 8.89928736,27.6437933 8.86958955,27.146853 C8.83603783,26.1529725 8.88613871,25.1852468 8.96378375,24.3349368 C9.14355752,22.6407151 9.3509888,21.403023 9.3509888,21.403023 C9.3509888,21.403023 8.36257312,22.2272905 7.54803698,23.9331863 C7.33335128,24.3558157 7.15029035,24.8358058 6.99091966,25.3586763 C6.91984895,25.6248262 6.84537772,25.8973744 6.76965964,26.1764332 C6.72692653,26.4646967 6.68339996,26.7593586 6.63794645,27.0606434 C6.61618316,27.365857 6.59441988,27.6789282 6.57276995,27.9945812 C6.57537701,28.3127038 6.60235441,28.6374493 6.62015043,28.9648888 C6.70255619,29.6196555 6.84673792,30.2821677 7.08375366,30.923801 C7.20945927,31.239454 7.35636142,31.5498312 7.50779758,31.8536978 L7.56447279,31.9671847 L7.61786084,32.0664156 L7.64812541,32.113337 L7.76396954,32.2997878 L7.99713136,32.6688728 C8.34749751,33.1696297 8.81042063,33.738299 9.23242425,34.153183 C9.66768987,34.5952319 10.1641647,34.9422033 10.6350224,35.2551623 C11.1084871,35.5641924 11.6068889,35.7702874 12.0606306,35.945064 C12.9811494,36.2763201 13.7891112,36.351978 14.3409011,36.3442326 C14.8980184,36.3325584 15.1995305,36.2489305 15.1995305,36.2489305 C15.1995305,36.2489305 14.0155854,35.7885845 12.7223704,34.7530584 C12.3917272,34.5000421 12.0829607,34.1793377 11.7543578,33.8609906 Z" id="Path"></path>
                        </g>
                    </g>
                </g>
            </g>
        </g>
    </g>
</svg>