<?xml version="1.0" encoding="UTF-8"?>
<svg width="24px" height="24px" viewBox="0 0 24 24" version="1.1" xmlns="http://www.w3.org/2000/svg" xmlns:xlink="http://www.w3.org/1999/xlink">
    <!-- Generator: Sketch 52.4 (67378) - http://www.bohemiancoding.com/sketch -->
    <title>Icon/24/Coffeemaker/Dark</title>
    <desc>Created with Sketch.</desc>
    <g id="Icon/24/Coffeemaker/Dark" stroke="none" stroke-width="1" fill="none" fill-rule="evenodd">
        <g>
            <rect id="Rectangle" x="0" y="0" width="24" height="24"></rect>
            <g id="Pictogram/Coffeemachine/Single" transform="translate(4.000000, 3.000000)">
                <path d="M15.7959796,2.5426124 L15.7959796,4.44957171 L0.667435756,4.44957171 L0.667435756,2.5426124 C0.667435756,1.13830946 1.7962593,0 3.18885972,0 L13.2745556,0 C14.667156,0 15.7959796,1.13830946 15.7959796,2.5426124 Z" id="Path" fill="#898890"></path>
                <path d="M2.53283313,18.243244 L13.9305822,18.243244 C15.329484,18.243244 16.4634153,17.1277007 16.4634153,15.7514838 L16.4634153,15.1285438 L0,15.1285438 L0,15.7514838 C0,17.1277007 1.13393134,18.243244 2.53283313,18.243244 Z M2.53283313,16.9973639 L13.9305822,16.9973639 C14.382918,16.9972118 14.8007798,16.7598072 15.0269477,16.3744239 C14.8007798,16.7598072 14.382918,16.9972118 13.9305822,16.9973639 L2.53283313,16.9973639 C2.08049731,16.9972118 1.66263552,16.7598072 1.43646761,16.3744239 C1.66263552,16.7598072 2.08049731,16.9972118 2.53283313,16.9973639 Z" id="Shape" fill="#898890" fill-rule="nonzero"></path>
                <polygon id="Path" fill="#ACABB1" points="15.7959796 13.7936723 0.667435756 13.7936723 0.667435756 15.1285438 15.7959796 15.1285438"></polygon>
                <polygon id="Path" fill="#57565C" points="2.00230727 4.44957171 14.6835866 4.44957171 14.6835866 13.7936723 2.00230727 13.7936723"></polygon>
                <path d="M10.6789721,11.3464079 L11.3464079,11.3464079 C12.0835854,11.3464079 12.6812794,10.7985217 12.6812794,10.1227756 C12.6812794,9.44702952 12.0835854,8.89914341 11.3464079,8.89914341 L10.6789721,8.89914341 L10.6789721,11.3464079 Z" id="Path" fill="#57565C"></path>
                <path d="M7.27822801,5.78444322 L9.18518731,5.78444322 C9.88726119,5.78444322 10.4564935,5.18674929 10.4564935,4.44957171 L6.0069218,4.44957171 C6.0069218,5.18674929 6.57615412,5.78444322 7.27822801,5.78444322 Z" id="Path" fill="#D3D2D6"></path>
                <polygon id="Path" fill="#A3A2A9" points="7.5642719 5.56196463 8.89914341 5.56196463 8.89914341 6.89683615 7.5642719 6.89683615"></polygon>
                <path d="M5.7399475,0.889914341 L10.7234678,0.889914341 C11.067484,0.889914341 11.3464079,1.16385738 11.3464079,1.50173045 L11.3464079,2.72536267 C11.3464079,3.06323575 11.067484,3.33717878 10.7234678,3.33717878 L5.7399475,3.33717878 C5.39593128,3.33717878 5.11700746,3.06323575 5.11700746,2.72536267 L5.11700746,1.50173045 C5.11700746,1.16385738 5.39593128,0.889914341 5.7399475,0.889914341 Z" id="Path" fill="#57565C"></path>
                <path d="M13.9396704,17.3533297 L2.52312554,17.3533297 C1.95716048,17.3515255 1.43455252,17.0318678 1.15025384,16.5135925 C1.06911408,16.3536816 1.12253625,16.1544081 1.27087947,16.0635459 C1.41937756,15.9726838 1.60906488,16.0233632 1.69918573,16.1776977 C1.86982689,16.4886628 2.18354652,16.6805559 2.52312554,16.68154 L13.9396704,16.68154 C14.2795591,16.6807199 14.5934336,16.4889908 14.7642296,16.1776977 C14.8543504,16.0233632 15.0440378,15.9726838 15.1925359,16.0635459 C15.3408791,16.1544081 15.3943012,16.3536816 15.3131615,16.5135925 C15.0287079,17.0320318 14.5057903,17.3518536 13.9396704,17.3533297 Z" id="Path" fill="#57565C"></path>
                <path d="M11.1517391,11.5688864 L10.539923,11.5688864 C10.3709864,11.5688864 10.2340149,11.4294245 10.2340149,11.2574164 L10.2340149,8.76565626 C10.2340149,8.59364815 10.3709864,8.45418624 10.539923,8.45418624 L11.1517391,8.45418624 C11.9964217,8.45418624 12.6812794,9.15149582 12.6812794,10.0115363 C12.6812794,10.8715769 11.9964217,11.5688864 11.1517391,11.5688864 Z M10.845831,10.9459464 L11.1517391,10.9459464 C11.6585487,10.9459464 12.0694633,10.5275606 12.0694633,10.0115363 C12.0694633,9.49551205 11.6585487,9.07712628 11.1517391,9.07712628 L10.845831,9.07712628 L10.845831,10.9459464 Z" id="Shape" fill="#D8D7DA" fill-rule="nonzero"></path>
                <path d="M8.78790412,2.44726444 L8.12046837,2.44726444 C7.93617396,2.44726444 7.78675049,2.29784097 7.78675049,2.11354656 C7.78675049,1.92925216 7.93617396,1.77982868 8.12046837,1.77982868 L8.78790412,1.77982868 C8.97219853,1.77982868 9.121622,1.92925216 9.121622,2.11354656 C9.121622,2.29784097 8.97219853,2.44726444 8.78790412,2.44726444 Z" id="Path" fill="#E0E0E2"></path>
                <path d="M10.5677328,2.44726444 L9.90029705,2.44726444 C9.71600264,2.44726444 9.56657917,2.29784097 9.56657917,2.11354656 C9.56657917,1.92925216 9.71600264,1.77982868 9.90029705,1.77982868 L10.5677328,1.77982868 C10.7520272,1.77982868 10.9014507,1.92925216 10.9014507,2.11354656 C10.9014507,2.29784097 10.7520272,2.44726444 10.5677328,2.44726444 Z" id="Path" fill="#E0E0E2"></path>
                <path d="M10.9014507,11.1916498 L10.9014507,9.55665085 L10.4143918,9.43626921 C9.87158421,9.30191182 9.30347897,9.31461701 8.76707391,9.47327306 L8.13509974,9.66003932 C7.64116985,9.80551373 7.12006836,9.82774781 6.61598815,9.72515343 L5.78444322,9.55601559 L5.78444322,11.1916498 C5.78444322,12.6287653 6.92986711,13.7936723 8.34294695,13.7936723 C9.75602679,13.7936723 10.9014507,12.6287653 10.9014507,11.1916498 Z" id="Path" fill="#997055"></path>
                <path d="M8.13509974,9.88756188 L8.76707391,9.70785677 C9.30347897,9.5551991 9.87158421,9.54297426 10.4143918,9.67225194 L10.9014507,9.78808225 L10.9014507,8.23170766 L5.78444322,8.23170766 L5.78444322,9.78808225 L6.61598815,9.95082539 C7.12022451,10.0493882 7.64116985,10.0276891 8.13509974,9.88756188 Z" id="Path" fill="#D8D7DA"></path>
                <path d="M7.34179332,2.22478585 C7.34179332,2.59337466 7.04294637,2.89222161 6.67435756,2.89222161 C6.30576875,2.89222161 6.0069218,2.59337466 6.0069218,2.22478585 C6.0069218,1.85619704 6.30576875,1.5573501 6.67435756,1.5573501 C7.04294637,1.5573501 7.34179332,1.85619704 7.34179332,2.22478585 Z" id="Path" fill="#8CC5D2"></path>
            </g>
        </g>
    </g>
</svg>