<?xml version="1.0" encoding="UTF-8"?>
<svg width="24px" height="24px" viewBox="0 0 24 24" version="1.1" xmlns="http://www.w3.org/2000/svg" xmlns:xlink="http://www.w3.org/1999/xlink">
    <!-- Generator: Sketch 52.3 (67297) - http://www.bohemiancoding.com/sketch -->
    <title>Icon/24/Coffeebeans/Primary</title>
    <desc>Created with Sketch.</desc>
    <g id="Icon/24/Coffeebeans/Primary" stroke="none" stroke-width="1" fill="none" fill-rule="evenodd">
        <g>
            <rect id="Rectangle" x="0" y="0" width="24" height="24"></rect>
            <g id="coffee-beans" transform="translate(2.000000, 3.000000)" fill="#8CC5D2" opacity="0.800000012">
                <path d="M3.67787469,17.2979061 C2.75373077,15.7077252 3.3823929,13.2140247 5.29447048,11.3485985 C7.46599672,9.23062198 10.4682028,8.7257675 12.0010241,10.2208851 C12.002639,10.2227558 12.0045567,10.2248727 12.0068782,10.2268911 C11.7000919,11.0976728 10.7229581,12.9500038 7.79468553,13.9515898 C5.11188241,14.8694354 4.0772167,16.3292058 3.67787469,17.2979061 Z M11.0985303,12.6639278 C10.3982056,13.3476844 9.40280293,14.0186904 7.99276683,14.5013913 C5.13116064,15.4801346 4.33166917,17.0829183 4.10855644,17.8590305 C4.11935629,17.8695658 4.128087,17.8805933 4.13823079,17.8902916 C5.67090066,19.3855077 8.67351046,18.8805547 10.8444816,16.7626274 C12.776443,14.8780015 13.3978884,12.3522522 12.4320591,10.764779 C12.19961,11.2935101 11.7952718,11.9842081 11.0985303,12.6639278 Z M5.17688336,5.77570414 C8.26826386,6.03997121 9.94062522,4.74448164 10.5876572,4.07450947 C10.5865469,4.07185104 10.5857394,4.06884801 10.5848815,4.06643573 C9.81980824,2.08832186 6.87074348,1.34184614 3.99798417,2.39920982 C1.46799385,3.33049526 -0.158291522,5.35006086 0.012235034,7.1703431 C0.785332493,6.44838396 2.34464872,5.53403367 5.17688336,5.77570414 Z M6.76875053,9.56302348 C9.32528627,8.6223351 10.9576781,6.5703761 10.7481409,4.73562022 C10.3130181,5.12409479 9.65281434,5.5911898 8.73099189,5.93058197 C7.80422371,6.27164797 6.61366674,6.48338655 5.12520559,6.35622525 C2.10457922,6.09786579 0.698782317,7.23709909 0.167419751,7.85508429 C0.172819675,7.86881948 0.176604668,7.88230853 0.181499926,7.89520681 C0.946724599,9.87386221 3.89589029,10.6206333 6.76875053,9.56302348 Z M15.7155154,5.43793655 C17.5702629,3.0104505 17.3185861,0.941556356 17.0739746,0.0526087875 C17.0711485,0.052313407 17.0683728,0.0512795753 17.0657486,0.0506888143 C14.9381787,-0.353391689 12.7377856,1.70260417 12.1509098,4.64242768 C11.6340816,7.23227454 12.5417734,9.64257929 14.2189796,10.4574356 C13.9953622,9.43640372 14.0171637,7.66195468 15.7155154,5.43793655 Z M17.7350363,0.266759639 C17.8454572,0.832216347 17.906017,1.6255591 17.7177263,2.56870899 C17.5285775,3.5174711 17.0874492,4.61682804 16.1948974,5.78574708 C14.3827941,8.15740622 14.6379531,9.92240307 14.8979064,10.6880293 C14.9127436,10.6910323 14.9266219,10.6947246 14.9403488,10.6976784 C17.0681205,11.1017589 19.2682613,9.04610763 19.8550362,6.10598875 C20.3776175,3.48970534 19.4452476,1.05631167 17.7350363,0.266759639 Z" id="Shape"></path>
            </g>
        </g>
    </g>
</svg>