<?xml version="1.0" encoding="UTF-8"?>
<svg width="24px" height="24px" viewBox="0 0 24 24" version="1.1" xmlns="http://www.w3.org/2000/svg" xmlns:xlink="http://www.w3.org/1999/xlink">
    <!-- Generator: Sketch 52.3 (67297) - http://www.bohemiancoding.com/sketch -->
    <title>Icon/24/Cup/Primary</title>
    <desc>Created with Sketch.</desc>
    <g id="Icon/24/Cup/Primary" stroke="none" stroke-width="1" fill="none" fill-rule="evenodd">
        <g>
            <rect id="Rectangle-Copy-2" x="0" y="0" width="24" height="24"></rect>
            <path d="M17.913222,9.51981076 L4.99766908,9.51981076 C4.23471536,9.51981076 3.61386139,10.1557482 3.61386139,10.9372377 L3.61386139,11.8821742 C3.61386139,15.2537457 5.4321847,18.3116229 8.3584623,19.862288 C8.58449863,19.9813518 8.86307642,19.8915667 8.98026764,19.6591087 C9.09650748,19.4275808 9.00885191,19.1422351 8.78190745,19.0221967 C6.16374329,17.635023 4.53638544,14.899389 4.53638544,11.8821299 L4.53638544,10.9371934 C4.53638544,10.6763869 4.74304847,10.464703 4.99766908,10.464703 L17.913222,10.464703 C18.1678426,10.464703 18.3745057,10.6763869 18.3745057,10.9371934 L18.3745057,11.8821299 C18.3745057,14.8993447 16.7471478,17.6349787 14.1280755,19.0212222 C13.9011311,19.1412163 13.8134755,19.4266063 13.9297153,19.6581342 C14.0118357,19.820651 14.1732655,19.9142012 14.3402305,19.9142012 C14.4121885,19.9142012 14.4841465,19.8971921 14.5514774,19.8612692 C17.4787064,18.3115343 19.2970297,15.2546316 19.2970297,11.8820857 L19.2970297,10.9371491 C19.2970297,10.1557482 18.6761325,9.51981076 17.913222,9.51981076 Z" id="Path" fill="#8CC5D2" opacity="0.800000012"></path>
            <path d="M22.0933922,19.2960461 C22.0217411,19.1169005 21.8545407,19 21.668997,19 L1.45971431,19 C1.27417058,19 1.10697022,19.1169005 1.03531908,19.2960461 C0.963667932,19.4751917 1.00315357,19.6811934 1.13452835,19.8182135 L2.16429825,20.8931769 C2.77242872,21.5264515 3.57893469,21.8752218 4.43784416,21.8752218 L18.6890586,21.8752218 C19.5479681,21.8752218 20.3554214,21.5264964 20.9644561,20.8931769 L21.994226,19.8182135 C22.1255577,19.6811934 22.1650434,19.4751917 22.0933922,19.2960461 Z M20.3140842,20.2158009 C19.8805173,20.6679987 19.3027007,20.9171139 18.6900059,20.9171139 L4.43784416,20.9171139 C3.82514938,20.9171139 3.24733285,20.6679987 2.81376592,20.2158009 L2.56759429,19.959051 L20.5602558,19.959051 L20.3140842,20.2158009 Z" id="Shape" fill="#8CC5D2" opacity="0.800000012"></path>
            <path d="M22.1122029,11.6299974 C20.8754501,10.8175094 18.899598,11.6994381 18.6782944,11.8016863 C18.4478235,11.9095636 18.3450046,12.1872827 18.4505779,12.4237068 C18.5561512,12.6601309 18.8270352,12.7642701 19.0593137,12.6563928 C19.5018781,12.450929 20.9213291,11.964008 21.6154532,12.4208923 C21.9285579,12.626356 22.0818608,13.0251018 22.0818608,13.6367876 C22.0818608,15.515031 18.3743568,16.6502713 16.9429411,16.9298375 L16.6211887,17.0675573 C16.3723834,17.1172961 16.3894221,17.3574409 16.4380986,17.61172 C16.4812662,17.8349947 16.4912096,17.9243051 16.7060575,17.9243051 C16.7354528,17.9243051 16.764805,17.9214906 16.7951041,17.9149379 L17.117376,17.8502027 C17.3579178,17.8032785 23,16.6727879 23,13.6367876 C23.000043,12.6929823 22.7007537,12.0184084 22.1122029,11.6299974 Z" id="Path" fill="#8CC5D2" opacity="0.800000012"></path>
            <path d="M15.0633777,5.61302409 C15.7709533,4.64988454 15.7709533,3.14169911 15.0633777,2.17855956 C14.9127976,1.97380076 14.6403989,1.93967429 14.4515516,2.10461888 C14.263561,2.26863033 14.233086,2.56625933 14.3836661,2.77101813 C14.831898,3.38053994 14.831898,4.41099928 14.3828094,5.02243181 C13.6743771,5.98557135 13.6743771,7.49375679 14.3828094,8.45689634 C14.4689717,8.57442825 14.5951555,8.63512714 14.7230936,8.63512714 C14.8179456,8.63512714 14.9145518,8.60100068 14.9946355,8.53083702 C15.1826261,8.36682557 15.2131011,8.06821899 15.062521,7.86443776 C14.6134324,7.25487152 14.6134324,6.22445662 15.0633777,5.61302409 Z" id="Path" fill="#8CC5D2" opacity="0.800000012"></path>
            <path d="M12.4488738,5.61284543 C13.1573061,4.64964895 13.1573061,3.14137435 12.4488738,2.17817786 C12.2991912,1.97340696 12.0250383,1.94021167 11.8370477,2.10423281 C11.6490571,2.26825395 11.6185821,2.56687819 11.7691622,2.77067146 C12.2182508,3.3802293 12.2182508,4.41074955 11.7683055,5.02221823 C11.0607299,5.98541472 11.0607299,7.49368932 11.7683055,8.4568858 C11.8544678,8.57442466 11.9806516,8.63512714 12.1085896,8.63512714 C12.2034416,8.63512714 12.2991912,8.60099866 12.3801316,8.53083085 C12.5681221,8.36680971 12.5985972,8.06916311 12.448017,7.8643922 C11.9997852,7.25478992 11.9997852,6.22431411 12.4488738,5.61284543 Z" id="Path" fill="#8CC5D2" opacity="0.800000012"></path>
            <path d="M9.61783314,5.61353229 C10.3254088,4.65025727 10.3254088,3.1418597 9.61783314,2.17858468 C9.46815055,1.97379707 9.19485436,1.93966581 9.00600706,2.1046336 C8.81887322,2.26769039 8.78843898,2.56633898 8.93812158,2.77019331 C9.38635343,3.37980085 9.38635343,4.41040512 8.93726485,5.02192366 C8.22883251,5.98519868 8.22883251,7.49359625 8.93726485,8.45687127 C9.0234272,8.57441971 9.14961097,8.63512714 9.277549,8.63512714 C9.37240101,8.63512714 9.46900727,8.60099588 9.54909093,8.53180007 C9.7370815,8.36776555 9.76755653,8.06911696 9.61697641,7.86530708 C9.16788783,7.25467738 9.16788783,6.22505082 9.61783314,5.61353229 Z" id="Path" fill="#8CC5D2" opacity="0.800000012"></path>
        </g>
    </g>
</svg>