<?xml version="1.0" standalone="no"?>
<!DOCTYPE svg PUBLIC "-//W3C//DTD SVG 20010904//EN"
 "http://www.w3.org/TR/2001/REC-SVG-20010904/DTD/svg10.dtd">
<svg version="1.0" xmlns="http://www.w3.org/2000/svg"
 width="700.000000pt" height="700.000000pt" viewBox="0 0 700.000000 700.000000"
 preserveAspectRatio="xMidYMid meet">
<metadata>
Created by potrace 1.11, written by Peter Selinger 2001-2013
</metadata>
<g transform="translate(0.000000,700.000000) scale(0.100000,-0.100000)"
fill="#000000" stroke="none">
<path d="M2054 6985 c-38 -20 -66 -66 -66 -111 0 -33 38 -93 99 -159 38 -40
106 -168 123 -228 26 -92 17 -186 -25 -269 -37 -73 -67 -114 -158 -212 -168
-183 -245 -310 -273 -456 -12 -60 -6 -194 11 -261 33 -127 140 -305 251 -416
37 -36 50 -43 83 -43 50 0 87 30 105 84 18 53 9 75 -69 172 -73 90 -141 216
-154 286 -18 102 8 217 73 313 18 27 77 94 130 149 54 54 115 121 138 149 50
64 103 169 124 245 42 153 14 360 -65 492 -15 25 -30 52 -33 60 -9 25 -134
166 -167 189 -41 29 -89 35 -127 16z"/>
<path d="M3261 6983 c-20 -10 -43 -34 -53 -55 -25 -48 -12 -98 37 -154 62 -68
142 -196 165 -263 29 -86 26 -188 -8 -273 -31 -78 -55 -112 -165 -231 -217
-233 -287 -377 -281 -572 3 -104 4 -112 29 -185 40 -123 124 -258 221 -357 55
-56 66 -63 100 -63 70 0 123 52 124 120 0 39 -10 55 -81 142 -211 255 -206
471 17 704 122 128 144 153 188 219 73 108 113 230 121 364 5 87 -39 253 -90
346 -48 86 -134 192 -202 249 -31 26 -82 30 -122 9z"/>
<path d="M4581 6979 c-17 -10 -37 -33 -47 -50 -26 -50 -13 -91 54 -173 195
-237 221 -413 89 -610 -22 -32 -47 -66 -56 -75 -184 -189 -282 -334 -322 -476
-14 -51 -19 -228 -7 -275 18 -71 22 -86 34 -109 8 -14 14 -31 14 -37 0 -18
105 -180 157 -243 77 -94 122 -116 186 -92 34 13 71 91 62 130 -3 17 -29 59
-57 93 -137 170 -178 264 -174 398 2 77 6 94 41 165 32 65 62 103 160 205 67
69 138 148 158 176 47 65 92 161 112 239 46 179 -7 410 -131 574 -52 68 -155
171 -173 173 -57 5 -74 3 -100 -13z"/>
<path d="M483 4337 c-21 -4 -55 -19 -75 -33 -81 -57 -115 -134 -112 -254 3
-122 15 -445 18 -480 2 -19 6 -78 10 -130 4 -52 9 -102 11 -110 2 -8 7 -49 10
-90 4 -41 9 -84 11 -95 2 -11 11 -65 20 -120 17 -116 56 -297 85 -405 11 -41
22 -82 24 -90 8 -30 23 -77 59 -180 182 -513 479 -902 897 -1173 89 -58 334
-187 355 -187 6 0 16 -6 22 -13 8 -9 -140 -12 -735 -12 -571 1 -756 -2 -794
-12 -136 -35 -231 -156 -232 -297 0 -104 38 -177 123 -234 64 -43 120 -59 235
-66 55 -4 123 -9 150 -11 28 -2 88 -7 135 -10 47 -3 110 -8 140 -10 30 -3 91
-7 135 -10 44 -2 112 -7 150 -10 107 -8 191 -14 289 -20 49 -4 105 -8 125 -10
20 -2 88 -7 151 -10 63 -4 126 -9 140 -10 14 -2 32 -3 41 -4 21 -1 51 -29 69
-65 30 -58 91 -115 158 -148 l67 -33 1090 0 1090 0 46 22 c64 30 116 78 151
141 48 84 45 83 273 97 55 3 123 8 150 10 28 1 97 6 155 10 58 4 125 8 150 10
25 2 88 6 140 9 142 9 249 16 305 21 28 2 102 7 165 10 63 3 131 8 150 10 19
2 87 7 150 10 183 10 271 50 337 152 35 54 37 63 37 138 1 71 -3 88 -32 147
-36 73 -79 114 -158 150 l-49 22 -762 0 c-420 1 -763 2 -763 3 0 1 60 31 133
66 252 121 416 236 610 428 l129 127 83 16 c509 101 914 448 1093 936 31 83
66 211 77 280 3 19 8 42 10 50 16 59 23 286 12 407 -25 285 -187 585 -390 722
-47 32 -178 91 -202 91 -7 0 -15 20 -19 48 -10 77 -64 146 -146 185 l-45 21
-2807 1 c-1544 0 -2824 -3 -2845 -8z m5599 -236 c7 -1 3 -292 -6 -426 -3 -44
-8 -119 -11 -167 -3 -48 -7 -95 -9 -105 -2 -10 -7 -52 -11 -93 -6 -76 -49
-351 -65 -425 -5 -22 -11 -51 -13 -65 -3 -14 -13 -54 -22 -90 -89 -344 -204
-603 -382 -860 -79 -113 -243 -286 -353 -370 -25 -19 -47 -38 -50 -41 -3 -4
-48 -34 -100 -69 -124 -81 -344 -188 -495 -240 -180 -62 -465 -127 -630 -145
-27 -3 -63 -7 -80 -10 -32 -5 -116 -12 -230 -20 -167 -12 -643 -6 -765 10 -19
3 -60 7 -90 10 -30 4 -66 8 -80 10 -14 2 -61 9 -105 15 -44 7 -87 14 -95 15
-8 2 -49 11 -90 20 -329 70 -637 198 -875 363 -370 256 -628 621 -788 1117
-45 138 -93 337 -112 465 -4 25 -9 59 -11 75 -3 17 -9 53 -14 80 -5 28 -12 82
-16 120 -3 39 -8 78 -10 88 -2 10 -6 60 -10 110 -3 51 -8 108 -10 127 -2 19
-6 141 -10 270 l-7 235 2769 -2 c1523 0 2772 -2 2776 -2z m385 -355 c93 -84
165 -227 201 -396 17 -78 20 -124 17 -255 -1 -88 -6 -173 -9 -190 -10 -43 -16
-76 -22 -110 -11 -62 -78 -243 -122 -329 -114 -221 -294 -400 -512 -508 -41
-20 -130 -58 -136 -58 -3 0 19 46 49 103 64 122 129 270 163 370 32 94 93 300
100 341 3 17 11 56 19 86 8 30 21 98 29 150 9 52 18 106 20 119 3 13 8 49 11
80 3 31 8 67 10 81 2 14 7 57 10 95 3 39 8 84 10 100 6 45 23 308 24 378 l1
38 42 -23 c23 -13 65 -45 95 -72z m-161 -3049 c29 -34 31 -63 3 -77 -28 -15
-40 -17 -160 -25 -57 -3 -126 -8 -154 -10 -51 -4 -197 -14 -295 -20 -146 -9
-250 -16 -300 -20 -30 -2 -98 -7 -150 -10 -94 -6 -170 -11 -305 -20 -38 -3
-106 -7 -150 -10 -177 -12 -215 -19 -285 -56 -44 -24 -104 -81 -142 -136 -53
-77 34 -72 -1122 -70 l-1038 2 -31 37 c-111 129 -130 147 -179 171 -81 38 -90
40 -273 52 -49 4 -115 8 -145 10 -141 11 -201 15 -280 20 -47 3 -110 8 -140
10 -30 3 -89 7 -130 10 -41 3 -100 7 -130 10 -30 2 -95 7 -145 10 -49 3 -110
7 -135 10 -25 2 -83 7 -130 10 -155 11 -164 12 -182 35 -16 20 -16 24 -3 51 9
17 27 32 45 36 17 5 1358 8 2981 8 l2951 -1 24 -27z"/>
<path d="M970 3247 c-36 -18 -70 -74 -70 -115 0 -19 12 -87 26 -151 209 -940
667 -1434 1509 -1626 131 -30 173 -32 216 -9 84 43 71 180 -19 215 -13 5 -69
18 -125 30 -56 12 -161 40 -233 64 -578 189 -915 595 -1089 1310 -19 77 -37
156 -40 175 -8 46 -29 76 -68 100 -37 23 -71 25 -107 7z"/>
</g>
</svg>
