<?xml version="1.0" encoding="UTF-8"?>
<svg width="24px" height="24px" viewBox="0 0 24 24" version="1.1" xmlns="http://www.w3.org/2000/svg" xmlns:xlink="http://www.w3.org/1999/xlink">
    <!-- Generator: Sketch 52.3 (67297) - http://www.bohemiancoding.com/sketch -->
    <title>Icon/24/Drop/White</title>
    <desc>Created with Sketch.</desc>
    <g id="Icon/24/Drop/White" stroke="none" stroke-width="1" fill="none" fill-rule="evenodd">
        <g>
            <rect id="Rectangle" x="0" y="0" width="24" height="24"></rect>
            <g id="drop" transform="translate(5.000000, 2.000000)" fill="#FFFFFF">
                <path d="M11.0932185,8.0474 C9.60000158,6.03555 8.05615218,3.95440476 7.90967166,1.92958914 L7.77098501,0 L6.36388762,1.34820644 C3.80103129,3.80214046 0,10.1297982 0,13.8414517 C0,17.6468064 3.14021068,20.7407407 7,20.7407407 C10.860121,20.7407407 14,17.6468064 14,13.8414517 C13.9999447,11.9634527 12.5876514,10.0611567 11.0932185,8.0474 Z M6.99994472,18.9418429 C4.14650421,18.9418429 1.82487089,16.6543917 1.82487089,13.8414517 C1.82487089,11.3621857 4.21073453,6.72136586 6.48776039,3.90504824 C7.13542539,5.760875 8.43694626,7.51510142 9.61990082,9.1092188 C10.9338587,10.8792437 12.1740236,12.5515361 12.1740236,13.8414517 C12.1740789,16.6543373 9.85310886,18.9418429 6.99994472,18.9418429 Z" id="Shape"></path>
                <path d="M5.64209174,16.2532755 C5.48784449,16.0949192 5.34621993,15.9121008 5.20622763,15.7223857 C5.05736679,15.522056 4.95339271,15.3499062 4.83010373,15.1150926 L4.7317881,14.9298496 L4.68184137,14.8365816 L4.66981716,14.8140593 L4.66638944,14.8084557 C4.65469168,14.7877654 4.67999149,14.8322172 4.67743431,14.8272602 L4.67678141,14.8247278 L4.67302724,14.8147059 L4.65686801,14.7733253 L4.52160922,14.4421724 C4.4909774,14.3263821 4.45142264,14.213663 4.4160573,14.0991119 C4.39206329,13.9813819 4.36866776,13.863113 4.33961378,13.7466222 C4.30544543,13.5081448 4.27165793,13.2690208 4.25740299,13.0304895 C4.24129816,12.5534268 4.26534658,12.0889184 4.3026162,11.6807696 C4.38890761,10.8675433 4.48847462,10.273451 4.48847462,10.273451 C4.48847462,10.273451 4.0140351,10.6690994 3.62305775,11.4879294 C3.52000862,11.6907915 3.43213937,11.9211868 3.35564144,12.1721646 C3.32152749,12.2999166 3.2857813,12.4307397 3.24943663,12.5646879 C3.22892473,12.7030544 3.20803198,12.8444921 3.18621429,12.9891088 C3.17576792,13.1356113 3.16532154,13.2858855 3.15492958,13.437399 C3.15618097,13.5900978 3.16913012,13.7459756 3.17767221,13.9031466 C3.21722697,14.2174347 3.2864342,14.5354405 3.40020175,14.8434245 C3.46054045,14.9949379 3.53105348,15.143919 3.60374284,15.2897749 L3.63094694,15.3442486 L3.6565732,15.3918795 L3.67110019,15.4144017 L3.72670538,15.5038981 L3.83862305,15.681059 C4.0067988,15.9214222 4.2290019,16.1943835 4.43156364,16.3935278 C4.64049114,16.6057113 4.87879907,16.7722576 5.10481074,16.9224779 C5.3320738,17.0708124 5.57130667,17.1697379 5.7891027,17.2536307 C6.23095172,17.4126336 6.61877338,17.4489494 6.88363251,17.4452317 C7.15104883,17.439628 7.29577465,17.3994867 7.29577465,17.3994867 C7.29577465,17.3994867 6.72748097,17.1785206 6.10673779,16.6814681 C5.94802906,16.5600202 5.79982112,16.4060821 5.64209174,16.2532755 Z" id="Path"></path>
            </g>
        </g>
    </g>
</svg>