<?xml version="1.0" encoding="UTF-8"?>
<svg width="24px" height="24px" viewBox="0 0 24 24" version="1.1" xmlns="http://www.w3.org/2000/svg" xmlns:xlink="http://www.w3.org/1999/xlink">
    <!-- Generator: Sketch 52.3 (67297) - http://www.bohemiancoding.com/sketch -->
    <title>Icon/24/Drops/Dark</title>
    <desc>Created with Sketch.</desc>
    <g id="Icon/24/Drops/Dark" stroke="none" stroke-width="1" fill="none" fill-rule="evenodd">
        <g>
            <rect id="Rectangle" x="0" y="0" width="24" height="24"></rect>
            <g id="drops" transform="translate(4.000000, 2.000000)" fill="#57565C">
                <g id="small-drop" transform="translate(4.742081, -0.000000)">
                    <path d="M5.49543164,3.87314084 C4.75571202,2.90485563 3.99090974,1.90321925 3.91834525,0.928693804 L3.84964175,-1.24344979e-13 L3.15258457,0.648879567 C1.88297992,1.82993582 -3.80140364e-13,4.87538028 -3.80140364e-13,6.66176555 C-3.80140364e-13,8.49324831 1.55561825,9.98233095 3.46770611,9.98233095 C5.37995827,9.98233095 6.93541222,8.49324831 6.93541222,6.66176555 C6.93538484,5.75790158 6.23575368,4.84234374 5.49543164,3.87314084 Z M3.46767873,9.11653767 C2.05412257,9.11653767 0.904016563,8.01560814 0.904016563,6.66176555 C0.904016563,5.46851724 2.08594141,3.2349326 3.21394948,1.87946441 C3.53479403,2.77265704 4.17955001,3.61695035 4.76556984,4.38418463 C5.41648696,5.23608159 6.030848,6.04094082 6.030848,6.66176555 C6.03087539,8.01558192 4.88109797,9.11653767 3.46767873,9.11653767 Z" id="Shape"></path>
                    <path d="M2.89734769,7.71795021 C2.82353472,7.6416555 2.75576217,7.55357523 2.68877072,7.46217215 C2.61753534,7.36565506 2.56777993,7.28271475 2.50878162,7.16958364 L2.46173399,7.0803352 L2.43783265,7.03539946 L2.43207862,7.02454842 L2.43043833,7.02184865 C2.42484052,7.01188023 2.43694741,7.03329675 2.4357237,7.03090848 L2.43541127,7.02968839 L2.43361476,7.02485994 L2.42588197,7.00492311 L2.36115568,6.84537658 C2.34649723,6.78958981 2.32756882,6.73528273 2.31064521,6.68009302 C2.2991632,6.62337171 2.28796758,6.56639081 2.27406418,6.51026657 C2.25771337,6.39537022 2.24154481,6.28016236 2.2347233,6.16524006 C2.22701655,5.93539545 2.2385246,5.71159938 2.25635948,5.51495685 C2.29765309,5.12315149 2.34529956,4.83692304 2.34529956,4.83692304 C2.34529956,4.83692304 2.11826283,5.02754298 1.93116582,5.42204813 C1.88185303,5.5197853 1.83980437,5.63078774 1.8031973,5.75170667 C1.78687253,5.81325643 1.76976666,5.87628587 1.7523744,5.94082096 C1.74255871,6.00748473 1.73256076,6.07562818 1.72212019,6.14530323 C1.71712122,6.21588686 1.71212225,6.28828766 1.70714931,6.36128552 C1.70774814,6.43485448 1.71394479,6.50995505 1.71803249,6.58567865 C1.7369609,6.73709989 1.7700791,6.89031232 1.82452105,7.0386963 C1.85339533,7.11169416 1.8871384,7.18347193 1.92192293,7.25374405 L1.93494109,7.27998901 L1.9472042,7.30293713 L1.95415589,7.31378816 L1.98076501,7.35690674 L2.03432173,7.44226128 C2.1148,7.55806621 2.22113234,7.68957657 2.31806556,7.78552255 C2.41804504,7.8877507 2.53208413,7.96799124 2.64023901,8.04036607 C2.74899273,8.11183233 2.86347444,8.1594938 2.96769783,8.1999126 C3.1791388,8.27651882 3.3647257,8.29401546 3.49147052,8.29222426 C3.61943904,8.28952448 3.68869566,8.27018472 3.68869566,8.27018472 C3.68869566,8.27018472 3.41674628,8.16372519 3.11969788,7.92424963 C3.04374993,7.86573713 2.97282699,7.79157109 2.89734769,7.71795021 Z" id="Path"></path>
                </g>
                <g id="small-drop-copy-2" transform="translate(8.298642, 9.484163)">
                    <path d="M5.49543164,3.87314084 C4.75571202,2.90485563 3.99090974,1.90321925 3.91834525,0.928693804 L3.84964175,-1.24344979e-13 L3.15258457,0.648879567 C1.88297992,1.82993582 -3.80140364e-13,4.87538028 -3.80140364e-13,6.66176555 C-3.80140364e-13,8.49324831 1.55561825,9.98233095 3.46770611,9.98233095 C5.37995827,9.98233095 6.93541222,8.49324831 6.93541222,6.66176555 C6.93538484,5.75790158 6.23575368,4.84234374 5.49543164,3.87314084 Z M3.46767873,9.11653767 C2.05412257,9.11653767 0.904016563,8.01560814 0.904016563,6.66176555 C0.904016563,5.46851724 2.08594141,3.2349326 3.21394948,1.87946441 C3.53479403,2.77265704 4.17955001,3.61695035 4.76556984,4.38418463 C5.41648696,5.23608159 6.030848,6.04094082 6.030848,6.66176555 C6.03087539,8.01558192 4.88109797,9.11653767 3.46767873,9.11653767 Z" id="Shape"></path>
                    <path d="M2.89734769,7.71795021 C2.82353472,7.6416555 2.75576217,7.55357523 2.68877072,7.46217215 C2.61753534,7.36565506 2.56777993,7.28271475 2.50878162,7.16958364 L2.46173399,7.0803352 L2.43783265,7.03539946 L2.43207862,7.02454842 L2.43043833,7.02184865 C2.42484052,7.01188023 2.43694741,7.03329675 2.4357237,7.03090848 L2.43541127,7.02968839 L2.43361476,7.02485994 L2.42588197,7.00492311 L2.36115568,6.84537658 C2.34649723,6.78958981 2.32756882,6.73528273 2.31064521,6.68009302 C2.2991632,6.62337171 2.28796758,6.56639081 2.27406418,6.51026657 C2.25771337,6.39537022 2.24154481,6.28016236 2.2347233,6.16524006 C2.22701655,5.93539545 2.2385246,5.71159938 2.25635948,5.51495685 C2.29765309,5.12315149 2.34529956,4.83692304 2.34529956,4.83692304 C2.34529956,4.83692304 2.11826283,5.02754298 1.93116582,5.42204813 C1.88185303,5.5197853 1.83980437,5.63078774 1.8031973,5.75170667 C1.78687253,5.81325643 1.76976666,5.87628587 1.7523744,5.94082096 C1.74255871,6.00748473 1.73256076,6.07562818 1.72212019,6.14530323 C1.71712122,6.21588686 1.71212225,6.28828766 1.70714931,6.36128552 C1.70774814,6.43485448 1.71394479,6.50995505 1.71803249,6.58567865 C1.7369609,6.73709989 1.7700791,6.89031232 1.82452105,7.0386963 C1.85339533,7.11169416 1.8871384,7.18347193 1.92192293,7.25374405 L1.93494109,7.27998901 L1.9472042,7.30293713 L1.95415589,7.31378816 L1.98076501,7.35690674 L2.03432173,7.44226128 C2.1148,7.55806621 2.22113234,7.68957657 2.31806556,7.78552255 C2.41804504,7.8877507 2.53208413,7.96799124 2.64023901,8.04036607 C2.74899273,8.11183233 2.86347444,8.1594938 2.96769783,8.1999126 C3.1791388,8.27651882 3.3647257,8.29401546 3.49147052,8.29222426 C3.61943904,8.28952448 3.68869566,8.27018472 3.68869566,8.27018472 C3.68869566,8.27018472 3.41674628,8.16372519 3.11969788,7.92424963 C3.04374993,7.86573713 2.97282699,7.79157109 2.89734769,7.71795021 Z" id="Path"></path>
                </g>
                <g id="small-drop-copy" transform="translate(0.000000, 8.298642)">
                    <path d="M5.49543164,3.87314084 C4.75571202,2.90485563 3.99090974,1.90321925 3.91834525,0.928693804 L3.84964175,-1.24344979e-13 L3.15258457,0.648879567 C1.88297992,1.82993582 -3.80140364e-13,4.87538028 -3.80140364e-13,6.66176555 C-3.80140364e-13,8.49324831 1.55561825,9.98233095 3.46770611,9.98233095 C5.37995827,9.98233095 6.93541222,8.49324831 6.93541222,6.66176555 C6.93538484,5.75790158 6.23575368,4.84234374 5.49543164,3.87314084 Z M3.46767873,9.11653767 C2.05412257,9.11653767 0.904016563,8.01560814 0.904016563,6.66176555 C0.904016563,5.46851724 2.08594141,3.2349326 3.21394948,1.87946441 C3.53479403,2.77265704 4.17955001,3.61695035 4.76556984,4.38418463 C5.41648696,5.23608159 6.030848,6.04094082 6.030848,6.66176555 C6.03087539,8.01558192 4.88109797,9.11653767 3.46767873,9.11653767 Z" id="Shape"></path>
                    <path d="M2.89734769,7.71795021 C2.82353472,7.6416555 2.75576217,7.55357523 2.68877072,7.46217215 C2.61753534,7.36565506 2.56777993,7.28271475 2.50878162,7.16958364 L2.46173399,7.0803352 L2.43783265,7.03539946 L2.43207862,7.02454842 L2.43043833,7.02184865 C2.42484052,7.01188023 2.43694741,7.03329675 2.4357237,7.03090848 L2.43541127,7.02968839 L2.43361476,7.02485994 L2.42588197,7.00492311 L2.36115568,6.84537658 C2.34649723,6.78958981 2.32756882,6.73528273 2.31064521,6.68009302 C2.2991632,6.62337171 2.28796758,6.56639081 2.27406418,6.51026657 C2.25771337,6.39537022 2.24154481,6.28016236 2.2347233,6.16524006 C2.22701655,5.93539545 2.2385246,5.71159938 2.25635948,5.51495685 C2.29765309,5.12315149 2.34529956,4.83692304 2.34529956,4.83692304 C2.34529956,4.83692304 2.11826283,5.02754298 1.93116582,5.42204813 C1.88185303,5.5197853 1.83980437,5.63078774 1.8031973,5.75170667 C1.78687253,5.81325643 1.76976666,5.87628587 1.7523744,5.94082096 C1.74255871,6.00748473 1.73256076,6.07562818 1.72212019,6.14530323 C1.71712122,6.21588686 1.71212225,6.28828766 1.70714931,6.36128552 C1.70774814,6.43485448 1.71394479,6.50995505 1.71803249,6.58567865 C1.7369609,6.73709989 1.7700791,6.89031232 1.82452105,7.0386963 C1.85339533,7.11169416 1.8871384,7.18347193 1.92192293,7.25374405 L1.93494109,7.27998901 L1.9472042,7.30293713 L1.95415589,7.31378816 L1.98076501,7.35690674 L2.03432173,7.44226128 C2.1148,7.55806621 2.22113234,7.68957657 2.31806556,7.78552255 C2.41804504,7.8877507 2.53208413,7.96799124 2.64023901,8.04036607 C2.74899273,8.11183233 2.86347444,8.1594938 2.96769783,8.1999126 C3.1791388,8.27651882 3.3647257,8.29401546 3.49147052,8.29222426 C3.61943904,8.28952448 3.68869566,8.27018472 3.68869566,8.27018472 C3.68869566,8.27018472 3.41674628,8.16372519 3.11969788,7.92424963 C3.04374993,7.86573713 2.97282699,7.79157109 2.89734769,7.71795021 Z" id="Path"></path>
                </g>
            </g>
        </g>
    </g>
</svg>