<?xml version="1.0" encoding="UTF-8"?>
<svg width="24px" height="24px" viewBox="0 0 24 24" version="1.1" xmlns="http://www.w3.org/2000/svg" xmlns:xlink="http://www.w3.org/1999/xlink">
    <!-- Generator: Sketch 52.3 (67297) - http://www.bohemiancoding.com/sketch -->
    <title>Icon/24/User/Primary</title>
    <desc>Created with Sketch.</desc>
    <g id="Icon/24/User/Primary" stroke="none" stroke-width="1" fill="none" fill-rule="evenodd">
        <g>
            <rect id="Rectangle" x="0" y="0" width="24" height="24"></rect>
            <path d="M12.0000568,12 C14.2090713,12 16,9.76144602 16,7.00002921 C16,4.23855398 15.4120118,2 12.0000568,2 C8.58810173,2 8,4.23855398 8,7.00002921 C8,9.76144602 9.7909287,12 12.0000568,12 Z" id="Path" fill="#8CC5D2" opacity="0.800000012"></path>
            <path d="M18.9921631,19.0043539 C18.9235243,14.224254 18.3578985,12.8621851 14.0295519,12 C14.0295519,12 13.4202708,12.8569024 12.0001578,12.8569024 C10.5800448,12.8569024 9.97065851,12 9.97065851,12 C5.68954376,12.8527807 5.08951972,14.1946476 5.01062455,18.8490654 C5.00415515,19.2291304 5.00115713,19.2491002 5,19.2049808 C5.00026298,19.2876466 5.00057856,19.440555 5.00057856,19.7071868 C5.00057856,19.7071868 6.03105464,22 12.0001578,22 C17.9691557,22 18.999737,19.7071868 18.999737,19.7071868 C18.999737,19.535876 18.9998422,19.4167537 19,19.3357135 C18.9988429,19.3629978 18.9965286,19.3101126 18.9921631,19.0043539 Z" id="Path" fill="#8CC5D2" opacity="0.800000012"></path>
        </g>
    </g>
</svg>