<?xml version="1.0" encoding="UTF-8"?>
<svg width="24px" height="24px" viewBox="0 0 24 24" version="1.1" xmlns="http://www.w3.org/2000/svg" xmlns:xlink="http://www.w3.org/1999/xlink">
    <!-- Generator: Sketch 52.3 (67297) - http://www.bohemiancoding.com/sketch -->
    <title>Icon/24/Coffeebean/Primary</title>
    <desc>Created with Sketch.</desc>
    <g id="Icon/24/Coffeebean/Primary" stroke="none" stroke-width="1" fill="none" fill-rule="evenodd">
        <g>
            <rect id="Rectangle" x="0" y="0" width="24" height="24"></rect>
            <path d="M4.71996969,18.0546928 C3.13523073,15.2391324 4.21360639,10.823204 7.49201013,7.51925137 C11.2149749,3.76882557 16.3627825,2.87470627 18.9910733,5.52223365 C18.9941608,5.5257014 18.9967423,5.52962812 19.0009434,5.53314687 C18.474941,7.07502202 16.7998524,10.3557203 11.7787369,12.1294249 C7.17915212,13.7550871 5.40485592,16.339685 4.71996969,18.0546928 Z M19.7303212,6.48606498 C19.331922,7.42240927 18.6385322,8.64606709 17.4438408,9.84963234 C16.2429742,11.0600311 14.5361999,12.2488074 12.1186239,13.1032005 C7.21195134,14.83672 5.84101471,17.6746168 5.45850897,19.0498359 C5.47657891,19.0681946 5.49211805,19.0872162 5.50968183,19.1050649 C8.13771951,21.7526943 13.2857295,20.858626 17.0084413,17.1075882 C20.3209602,13.770131 21.3862769,9.29693372 19.7303212,6.48606498 Z" id="Shape" fill="#8CC5D2" opacity="0.800000012"></path>
        </g>
    </g>
</svg>