<?xml version="1.0" encoding="UTF-8"?>
<svg width="24px" height="24px" viewBox="0 0 24 24" version="1.1" xmlns="http://www.w3.org/2000/svg" xmlns:xlink="http://www.w3.org/1999/xlink">
    <!-- Generator: Sketch 52.3 (67297) - http://www.bohemiancoding.com/sketch -->
    <title>Icon/24/Tap/Black</title>
    <desc>Created with Sketch.</desc>
    <g id="Icon/24/Tap/Black" stroke="none" stroke-width="1" fill="none" fill-rule="evenodd">
        <g>
            <rect id="Rectangle" x="0" y="0" width="24" height="24"></rect>
            <g id="tap" transform="translate(2.000000, 4.000000)" fill="#102129">
                <path d="M19.272673,7.96816345 L15.9999574,7.96816345 C15.6898591,7.55237635 15.3225308,7.18299731 14.9090522,6.8711677 C12.4990891,5.05362573 9.08016662,5.54474558 7.27271565,7.96816345 L5.45452608,7.96816345 C2.44724983,7.96816345 0,10.2645269 0,13.0874912 L0,14.1844869 C0,14.5884042 0.325609639,14.9158317 0.727284349,14.9158317 L2.90909478,14.9158317 C3.31076949,14.9158317 3.63637913,14.5884042 3.63637913,14.1844869 L3.63637913,13.0874912 C3.63637913,12.2793567 4.4509359,11.6248445 5.4545687,11.6248445 L6.18185305,11.6248445 C6.37357112,14.5104575 8.76039503,16.7506 11.6363791,16.7441722 C14.5123632,16.7506 16.8991871,14.5104575 17.0909052,11.6248445 L19.2727157,11.6248445 C19.6743904,11.6248445 20,11.297417 20,10.8934997 L20,8.69950823 C19.9999148,8.29554811 19.6743051,7.96816345 19.272673,7.96816345 Z M19.272673,10.8934569 L16.7272417,10.8934569 C16.5264044,10.8934569 16.3636209,11.0571492 16.3636209,11.2591078 C16.3636209,13.8844843 14.2471369,16.0127418 11.6363791,16.0127418 C9.02562136,16.0127418 6.9091374,13.8844415 6.9091374,11.2591078 C6.9091374,11.0571492 6.74635388,10.8934569 6.54551653,10.8934569 L5.45452608,10.8934569 C4.0508805,10.8934569 2.90909478,11.8771107 2.90909478,13.0874484 L2.90909478,14.1844441 L0.727284349,14.1844441 L0.727284349,13.0874484 C0.727284349,10.6667301 2.84726262,8.69946538 5.45452608,8.69946538 L7.46179168,8.69946538 C7.58076853,8.69925112 7.69216018,8.64054471 7.75995824,8.5422436 C8.07828097,8.08364796 8.47454377,7.68517283 8.93059329,7.3650729 C11.0714522,5.86240298 14.0183451,6.38943231 15.5126722,8.5422436 C15.5805129,8.64054471 15.6918619,8.69929397 15.8108387,8.69946538 L19.2726304,8.69946538 L19.2726304,10.8934569 L19.272673,10.8934569 Z" id="Shape"></path>
                <path d="M13.0649079,4.33039294 L9.7921923,4.33039294 C9.59135494,4.33039294 9.42857143,4.4811673 9.42857143,4.66718813 L9.42857143,6.35124298 L10.1558558,6.35124298 L10.1558558,5.00402278 L12.7012871,5.00402278 L12.7012871,6.35124298 L13.4285714,6.35124298 L13.4285714,4.66718813 C13.4285288,4.48120677 13.2657453,4.33039294 13.0649079,4.33039294 Z" id="Path"></path>
                <path d="M11.5714286,0 C10.861352,0 10.2857143,0.571679759 10.2857143,1.27687402 L10.2857143,4.33039294 L11.0204143,4.33039294 L11.0204143,1.27687402 C11.0204143,0.974660121 11.2671223,0.729648403 11.5714286,0.729648403 C11.8757348,0.729648403 12.1224428,0.974660121 12.1224428,1.27687402 L12.1224428,4.33039294 L12.8571429,4.33039294 L12.8571429,1.27687402 C12.8571429,0.571679759 12.2815051,0 11.5714286,0 Z" id="Path"></path>
                <path d="M10.4952522,1.32799597 L9.04764732,1.32799597 C8.55564062,0.85287776 7.91036161,0.585214203 7.23810937,0.577385726 C6.2387433,0.577385726 5.42857143,1.41749569 5.42857143,2.45388933 C5.42857143,3.49028298 6.2387433,4.33039294 7.23810937,4.33039294 C7.91036161,4.32256447 8.55559821,4.05490091 9.04764732,3.5797827 L10.4952522,3.5797827 C10.6951339,3.5797827 10.8571429,3.4117783 10.8571429,3.20449957 L10.8571429,1.70327909 C10.8571429,1.49600037 10.6951339,1.32799597 10.4952522,1.32799597 Z M10.1333192,2.82917246 L8.85578125,2.82917246 C8.72596205,2.8286447 8.6058125,2.90024448 8.54092411,3.01683602 C8.38167187,3.29457104 7.72663839,3.5797827 7.23806696,3.5797827 C6.63842187,3.5797827 6.15235268,3.07572552 6.15235268,2.45388933 C6.15235268,1.83205315 6.63842187,1.32799597 7.23806696,1.32799597 C7.72663839,1.32799597 8.38167187,1.61320763 8.5373192,1.89094265 C8.60220759,2.00753419 8.72235714,2.07913397 8.85217634,2.0786062 L10.1333192,2.0786062 L10.1333192,2.82917246 Z" id="Shape"></path>
                <path d="M15.6190335,0.577385726 C14.9467812,0.585214295 14.3015446,0.852880988 13.8094955,1.32800476 L12.3618906,1.32800476 C12.1620089,1.32800476 12,1.49601113 12,1.70329229 L12,3.20448638 C12,3.41176754 12.1620513,3.57977391 12.3618906,3.57977391 L13.8094955,3.57977391 C14.3015022,4.05489768 14.9467812,4.32256437 15.6190335,4.33039294 C16.6183996,4.33039294 17.4285714,3.49022915 17.4285714,2.45386734 C17.4285714,1.41750554 16.618442,0.577385726 15.6190335,0.577385726 Z M15.6226808,3.57977391 C15.1341094,3.57977391 14.4754286,3.2945589 14.3198237,3.01682063 C14.2549353,2.90022772 14.1347857,2.8286271 14.0049665,2.82915487 L12.7238237,2.82915487 L12.7238237,2.07857982 L14.0049665,2.07857982 C14.1347857,2.07910759 14.2549353,2.00750696 14.3198237,1.89091406 C14.4790759,1.61317578 15.1341094,1.32796078 15.6226808,1.32796078 C16.2222835,1.32796078 16.7083951,1.83202387 16.7083951,2.45386734 C16.7083951,3.07571082 16.2222835,3.57977391 15.6226808,3.57977391 Z" id="Shape"></path>
                <path d="M13.7622081,10.9895648 C13.6019883,10.6913097 13.3918103,10.4222642 13.1405967,10.1939755 C12.7193786,9.7804641 12.483424,9.21628554 12.485881,8.62837146 L12.485881,8.54809832 C12.4926053,8.35500659 12.5247613,8.16362552 12.5815301,7.97878776 C12.6110998,7.88388841 12.6003668,7.78107722 12.5518741,7.69417525 C12.4534232,7.51784807 12.229581,7.45412565 12.0518608,7.55180484 C11.5991332,7.79899648 11.2188645,8.15866458 10.9483831,8.59552662 C10.7004886,8.99406967 10.5528984,9.44594282 10.5180268,9.91295539 C10.4468611,9.90842212 10.3760403,9.92629861 10.315737,9.96406162 C9.58907966,10.3993841 9.14432644,11.1796628 9.14286088,12.0218678 C9.14053323,13.3521266 10.2255621,14.4323284 11.5663306,14.4346378 C12.5961856,14.4367762 13.5156929,13.794976 13.8615642,12.8325538 C14.0759233,12.2294147 14.0402327,11.5665306 13.7622081,10.9895648 Z M12.8496838,13.1241372 C12.2372968,13.8244423 11.1686476,13.8996262 10.4628098,13.2920394 C9.75697207,12.6844526 9.68119419,11.6242229 10.2935812,10.9238751 C10.4584132,11.3238722 10.7502744,11.6595482 11.1248533,11.8800106 C11.2761936,12.0160516 11.510036,12.0046328 11.6471517,11.8544789 C11.7842674,11.7043249 11.7727585,11.4723155 11.6214183,11.3362746 C11.1454573,10.6192905 11.1282586,9.69441746 11.5772792,8.9604978 C11.628315,8.87663226 11.6848682,8.79618806 11.7464647,8.71963563 C11.7715947,9.46347718 12.0821202,10.169684 12.6145482,10.6939612 C12.8057171,10.8648998 12.9672731,11.0658606 13.0927075,11.2888035 C13.3896981,11.8936532 13.294049,12.6159403 12.8496838,13.1241372 Z" id="Shape"></path>
            </g>
        </g>
    </g>
</svg>